<?xml version="1.0" standalone="no"?>
<!DOCTYPE svg PUBLIC "-//W3C//DTD SVG 1.1//EN" "http://www.w3.org/Graphics/SVG/1.1/DTD/svg11.dtd" >
<svg xmlns="http://www.w3.org/2000/svg">
<metadata>
This is a custom SVG webfont generated by Font Squirrel.
Copyright   : Jott FLF Casual, 4.1 Copyright Casady and Greene, Inc. 1988-92 All rights reserved.
</metadata>
<defs>
<font id="webfont" horiz-adv-x="440" >
<font-face units-per-em="1000" ascent="800" descent="-200" />
<missing-glyph horiz-adv-x="290" />
<glyph unicode=" "  horiz-adv-x="290" />
<glyph unicode="&#x09;" horiz-adv-x="290" />
<glyph unicode="&#xa0;" horiz-adv-x="290" />
<glyph unicode="!" horiz-adv-x="214" d="M64 133q11 -2 20.5 3t11.5 17l74 449q2 12 -3.5 21t-16.5 10q-12 2 -21 -7t-11 -21l-73 -438q-4 -29 19 -34zM83 29q0 17 -10.5 25.5t-23.5 8.5t-23.5 -8.5t-10.5 -25.5t10.5 -25.5t23.5 -8.5t23.5 8.5t10.5 25.5z" />
<glyph unicode="&#x22;" horiz-adv-x="233" d="M147 514q0 -12 7 -16.5t14 -4.5t14 4.5t7 16.5v85q0 12 -7.5 16.5t-13.5 4.5q-7 0 -14 -4t-7 -17v-85zM63 514q0 -12 7 -16.5t14 -4.5t14 4.5t7 16.5v85q0 12 -7.5 16.5t-13.5 4.5q-7 0 -14 -4t-7 -17v-85z" />
<glyph unicode="#" horiz-adv-x="415" d="M18 361q-11 0 -18.5 -6.5t-8.5 -17.5q-1 -8 4.5 -16t14.5 -8h48l-9 -49q-2 -9 5.5 -15t16.5 -7q8 -1 16 4t10 14l9 53h140l-9 -49q-2 -9 5.5 -15.5t16.5 -6.5t16.5 5t9.5 14l9 52h48q11 0 20 6.5t9 17.5q0 9 -6 16.5t-15 7.5h-48l20 113h48q11 0 19 6.5t8 17.5 q0 9 -5 16.5t-14 7.5h-48l9 49q2 8 -5 14.5t-16 6.5q-10 0 -17.5 -5.5t-9.5 -15.5l-9 -49h-140l9 49q2 8 -5.5 14t-15.5 7q-10 1 -17.5 -5t-9.5 -16l-9 -49h-48q-11 0 -18 -7.5t-9 -16.5t4 -16.5t15 -7.5h48l-20 -113h-48zM134 474h140l-20 -113h-140z" />
<glyph unicode="$" horiz-adv-x="528" d="M478 620q-19 11 -43.5 18.5t-46 12.5t-36.5 7l-15 2l1 8q3 25 -19 28q-9 2 -18 -2.5t-11 -16.5l-3 -15h-19q-18 0 -46.5 -6.5t-57 -23t-51 -49.5t-27.5 -86q-4 -35 10.5 -61.5t36.5 -43.5t45.5 -28t39 -15.5t16.5 -4.5l-49 -298l-15 1q-14 1 -35 6t-44.5 15t-42.5 29 q-9 9 -19.5 7t-16.5 -9.5t-6.5 -18.5t9.5 -20q30 -26 58.5 -39t50.5 -19q23 -6 37 -6h14l-2 -17q-1 -12 4 -17t14 -7q10 -2 19 0.5t11 14.5l5 25q2 0 22.5 1.5t53.5 11t65 30t57.5 57t30.5 93.5q4 47 -12 81.5t-40 57t-50.5 36t-43.5 19t-18 5.5l37 226l12 -1q12 -2 30.5 -6 t40.5 -11.5t43 -18.5q12 -6 21.5 -1.5t14 13.5t2.5 19.5t-14 16.5zM281 327l21 -7q20 -8 44 -24.5t42.5 -44t14.5 -67.5q-4 -41 -23 -67t-42.5 -40.5t-47.5 -21.5t-39 -8t-16 -1zM138 497q6 46 28.5 69t47.5 33q25 11 45 11h20l-35 -209l-18 5q-18 6 -38.5 18t-36.5 30 t-13 43z" />
<glyph unicode="%" horiz-adv-x="408" d="M110 655q-28 5 -49.5 -5.5t-34.5 -29t-17 -42.5t2 -46t23 -39.5t45 -22.5t49.5 5t34.5 29t17 43t-2.5 46.5t-23 39.5t-44.5 22zM81 5l263 606q9 21 -11 28q-8 3 -18 1t-15 -13l-264 -605q-5 -11 -1 -19.5t12 -12.5q9 -4 19 0t15 15zM301 179q-28 5 -49.5 -5.5t-34.5 -29 t-17 -42.5t2 -46t23 -39.5t45 -22.5t49.5 5t34.5 29t17 43t-2.5 46.5t-23 39.5t-44.5 22zM84 506q-24 4 -33.5 24t-5.5 41.5t19.5 36.5t39.5 11q24 -5 33 -24.5t5.5 -41t-19 -37t-39.5 -10.5zM275 30q-24 4 -33.5 24t-5.5 41.5t19.5 36.5t39.5 11q24 -5 33 -24.5t5.5 -41 t-19 -37t-39.5 -10.5z" />
<glyph unicode="&#x26;" horiz-adv-x="579" d="M62 45q41 -44 88.5 -54.5t91 -0.5t81.5 29.5t58.5 35.5t22.5 17l54 -77q5 -7 15 -5.5t17 7.5t8.5 14.5t-3.5 15.5l-54 75l53 54q7 8 7.5 18t-7.5 17t-18 6t-17 -9l-44 -45l-162 252q1 1 13.5 11.5t31 30.5t35 43.5t26.5 49t5 48.5q-7 29 -34 46.5t-60.5 17.5t-66.5 -17.5 t-51 -59.5q-13 -30 -9 -59t14.5 -51.5t21.5 -36.5l11 -14l-18 -17q-18 -17 -43.5 -45t-51 -65t-39.5 -77t-11 -80t35 -75zM378 112q-1 -1 -19 -14.5t-50 -30.5t-68 -26.5t-74.5 -3t-68.5 40.5q-23 25 -23.5 56.5t12.5 63t35 61.5t43 53t36 37l15 14zM227 436l-7 10 q-8 10 -15.5 26.5t-11.5 36.5t4 39q10 24 28.5 35.5t38 12.5t34.5 -6.5t18 -20.5q3 -14 -5.5 -32t-22 -35t-28 -32.5t-23.5 -24t-10 -9.5z" />
<glyph unicode="'" horiz-adv-x="72" d="M30 514q0 -12 7 -16.5t14 -4.5t14 4.5t7 16.5v85q0 12 -7.5 16.5t-13.5 4.5q-7 0 -14 -4t-7 -17v-85z" />
<glyph unicode="(" horiz-adv-x="225" d="M60 332q8 79 31.5 139t48 101t45 62.5t22.5 24.5q10 10 9 20.5t-8 16.5t-17.5 5.5t-20.5 -10.5q-4 -4 -26 -28.5t-48.5 -69.5t-50.5 -110t-33 -150q-7 -68 3 -128.5t26 -108.5q17 -47 33 -79l22 -43q7 -12 17 -14t17.5 3.5t10 15.5t-4.5 22l-18 35q-15 29 -30 74 t-25 102.5t-3 119.5z" />
<glyph unicode=")" horiz-adv-x="225" d="M166 330q-8 -79 -31.5 -139t-48 -101t-45 -62.5t-22.5 -24.5q-10 -11 -9 -21t8 -16t17.5 -5.5t20.5 10.5q4 4 26 28.5t48.5 69.5t50.5 110t33 150q7 68 -3 128.5t-26 108.5q-17 47 -33 79l-22 43q-7 12 -17 14t-17.5 -3.5t-10 -15.5t4.5 -22l18 -35q15 -29 30 -74 t25 -102.5t3 -119.5z" />
<glyph unicode="*" horiz-adv-x="226" d="M21 430l78 39v-50q0 -6 5.5 -8.5t10.5 -2.5t10 1.5t5 6.5v63l66 -33q5 -2 10 2t6 9t1 9t-4 6l-52 26l82 41q5 2 5.5 9t-2.5 12q-2 5 -7 7.5t-10 0.5l-94 -47v68q0 6 -6 9t-10 3q-3 0 -9 -3t-6 -9v-62l-55 27q-5 2 -10.5 -1.5t-7.5 -8.5t-1.5 -11t5.5 -8l54 -27l-76 -38 q-5 -2 -5 -10q0 -7 2 -11q3 -5 6 -8.5t9 -0.5z" />
<glyph unicode="+" horiz-adv-x="312" d="M238 350h-82v82q0 12 -8 18t-16 6t-16 -6t-8 -18v-82h-82q-12 0 -18 -8t-6 -16t6 -16t18 -8h82v-82q0 -12 8 -18t16 -6t16 6t8 18v82h82q12 0 18 8t6 16t-6 16t-18 8z" />
<glyph unicode="," horiz-adv-x="102" d="M85 37q0 17 -13 29.5t-30 12.5t-29.5 -12.5t-12.5 -29.5q0 -15 8 -24.5t16 -13.5q0 -23 -4 -36t-8 -22l-8 -17q-4 -8 -4 -19q0 -7 7 -7t20 13t26 33t22.5 45t9.5 48z" />
<glyph unicode="-" horiz-adv-x="264" d="M24 218q-9 0 -16.5 -8t-7.5 -16t7 -16t17 -8h184q9 0 16.5 8t7.5 16t-7.5 16t-16.5 8h-184z" />
<glyph unicode="." horiz-adv-x="89" d="M0 37q0 -17 12.5 -29.5t29.5 -12.5t29.5 12.5t12.5 29.5t-12.5 29.5t-29.5 12.5t-29.5 -12.5t-12.5 -29.5z" />
<glyph unicode="/" horiz-adv-x="342" d="M50 8l283 607q5 11 2.5 21.5t-10.5 14.5t-19.5 0.5t-16.5 -16.5l-283 -606q-3 -8 -1 -18.5t10 -14.5t20 0t15 12z" />
<glyph unicode="0" horiz-adv-x="430" d="M256 644q-49 -1 -90 -29t-72.5 -73.5t-53 -103t-32 -118t-8 -118.5t19.5 -104t48.5 -74.5t79.5 -30.5q61 -2 105.5 24.5t74.5 72t46 104.5t20 121t-4 121t-26 105.5t-45.5 75t-62.5 27.5zM249 600q24 1 43 -22.5t32 -63t18.5 -90t3 -103.5t-15 -103.5t-35.5 -90 t-57.5 -63.5t-81.5 -23q-51 1 -76 42t-30 102.5t8 133t40.5 133.5t66 104t84.5 44z" />
<glyph unicode="1" horiz-adv-x="430" d="M187 6l104 624q2 14 -1.5 15.5t-8.5 5.5q-3 2 -10.5 1.5t-12.5 -3.5l-99 -58q-9 -5 -11 -17t1 -18q3 -5 14 -9t19 1l51 30l-94 -564q-2 -12 4.5 -20t15.5 -10q8 -2 17 3t11 19z" />
<glyph unicode="2" horiz-adv-x="430" d="M62 562q-9 -10 -9 -20t6 -16.5t16 -7t21 9.5q45 40 77.5 58t56 22.5t40.5 -1t30 -12.5q35 -19 33 -49.5t-26 -70.5t-64 -88l-81 -102q-41 -54 -78 -112.5t-54 -120.5q-5 -17 6.5 -27t28.5 -5q53 16 98 18.5t82.5 -2.5t69.5 -15l60 -18q13 -4 21.5 1.5t11.5 14t-1 17.5 t-15 12l-58 18q-30 9 -65 15t-77.5 6.5t-97.5 -7.5l6 12l15 30l22 41q12 22 26 43q23 34 55 73l64 79q32 40 58 81t36 77.5t-1 68t-54 54.5q-35 19 -72.5 17t-72.5 -15.5t-65 -35.5t-49 -43z" />
<glyph unicode="3" horiz-adv-x="430" d="M60 563q26 15 64 26.5t74 16.5t63 3.5t31 -13.5q5 -13 -14.5 -33t-48.5 -41.5t-61 -42t-52 -34.5q-21 -15 -27.5 -24.5t-3.5 -15.5t13.5 -7.5t22.5 0.5q22 4 57.5 0.5t70 -17.5t59 -40t24.5 -68q0 -44 -24 -82t-63.5 -68t-90.5 -51t-106 -30q-15 -2 -23 -10t-7.5 -17 t10 -15.5t28.5 -5.5q16 0 46.5 7.5t66.5 22.5t73.5 37.5t68 53.5t50 70.5t19.5 87.5q0 72 -50 117t-135 50q1 1 18 11t42 28.5t47 40.5t33.5 47.5t1.5 49.5q-13 30 -52 37t-86.5 1t-92.5 -21t-70 -29q-10 -6 -11 -15t3.5 -17t13 -12t18.5 2z" />
<glyph unicode="4" horiz-adv-x="430" d="M299 0l51 306l61 12q10 2 16 12t4 18t-9 14t-18 4l-45 -9l46 279q1 8 -5 14.5t-14 8.5q-11 2 -19 -3.5t-10 -17.5l-49 -290l-20 -5q-20 -5 -49 -11.5t-63 -12.5t-61.5 -8.5t-44.5 0.5t-13 16l25 70q12 31 26 63l28 67l35 80q6 13 1.5 22t-13 12t-18.5 -1t-15 -16l-32 -73 l-32 -71q-16 -36 -30.5 -76t-27.5 -86q-8 -28 10.5 -40.5t51.5 -14.5t73.5 2.5t76.5 11.5t60 13l24 6l-49 -294q-3 -21 4.5 -24t18.5 -3q5 0 9 -2t6.5 -1t5 7t4.5 21z" />
<glyph unicode="5" horiz-adv-x="430" d="M367 637q-23 4 -54.5 8t-64.5 5.5t-64.5 0.5t-55.5 -5t-37 -13t-8 -22q7 -22 9 -38.5t-1.5 -32.5t-11.5 -34l-20 -46q-2 -6 -1.5 -14t4.5 -15t11.5 -11.5t19.5 -3.5t44.5 -0.5t67.5 -14.5t62.5 -43t28.5 -85q1 -54 -27 -95t-69.5 -69.5t-88.5 -45t-84 -21.5 q-15 -2 -22 -10t-6 -17t9.5 -15.5t25.5 -5.5q27 2 60.5 10t68 23t67.5 37t58.5 52.5t40.5 69.5t15 87q0 54 -22 90.5t-55.5 59t-74 32t-78.5 7.5q1 2 9 16.5t15.5 45t2.5 67.5q-1 8 24 10.5t60.5 1t73.5 -5.5t63 -8q12 -2 18 4.5t7 15.5t-4.5 17.5t-15.5 10.5z" />
<glyph unicode="6" horiz-adv-x="430" d="M39 27q25 -32 74.5 -50t105.5 -15q39 3 79 23.5t68 52t38.5 71t-8.5 80.5q-12 26 -38.5 41.5t-59 19.5t-68 -5.5t-66 -33.5t-52.5 -63.5t-28 -96.5l-10 13q-10 14 -10 43q-2 66 25 134t72 133t101.5 126t115.5 112q10 9 11 19.5t-4.5 17.5t-17 7.5t-25.5 -11.5 q-82 -68 -140.5 -134.5t-96.5 -129t-58.5 -119t-27 -102.5t-0.5 -80.5t20 -52.5zM132 25q0 64 29.5 106t68 60t75 11t51.5 -41q10 -23 1 -47.5t-29.5 -46t-49 -37t-58.5 -20.5q-26 -4 -46.5 0t-30.5 9t-11 6z" />
<glyph unicode="7" horiz-adv-x="430" d="M90 563l11 31h256l-166 -588q-2 -11 3.5 -18t14.5 -9q8 -2 17.5 2.5t11.5 13.5l167 599q4 14 3.5 21t-3.5 12q-2 4 -9.5 9.5t-19.5 5.5h-290q-7 0 -13 -4q-2 -2 -5.5 -5t-4.5 -7l-20 -52q-4 -11 2.5 -18t15.5 -9q8 -2 17 2.5t12 13.5z" />
<glyph unicode="8" horiz-adv-x="430" d="M28 46q14 -23 42 -38t63 -20.5t72 -1t69.5 21t55 46t28.5 73.5q5 41 -13.5 82.5t-43 75.5t-45.5 55l-21 21q1 1 14.5 17.5t33.5 45t40 61t33 65.5t12 58.5t-21.5 40t-68.5 9.5q-71 -7 -106.5 -32t-47.5 -58t-5.5 -70t18.5 -68t24 -51l12 -20l-17 -13q-17 -13 -40.5 -35.5 t-48.5 -52.5t-41 -65t-18 -72.5t20 -74.5zM68 78q-17 30 -8.5 64.5t29.5 66t47.5 58t44 41t19.5 15.5l18 -17q18 -17 39.5 -44.5t38.5 -63t14 -71.5q-2 -26 -17.5 -45.5t-38.5 -31.5t-51 -16.5t-54 -1t-48 14.5t-33 31zM208 401q-1 2 -12.5 20t-22 48t-9 59.5t27 53 t86.5 28.5q26 2 31 -12.5t-2.5 -37.5t-24 -51t-32.5 -52l-30 -40z" />
<glyph unicode="9" horiz-adv-x="430" d="M78 29q-9 -8 -9 -19t5.5 -18.5t15.5 -9t21 10.5q57 59 105 127t84.5 135.5t61 131t33 116t1.5 88.5t-34 49q-37 18 -81 22t-87.5 -6.5t-82 -35.5t-65.5 -64q-15 -22 -20.5 -55.5t0.5 -67t25 -61.5t53.5 -38t86.5 4t124 63q-1 -2 -11.5 -27t-32 -69t-50 -92.5t-65.5 -98 t-78 -85.5zM83 524q8 17 27.5 33t45 28t54 19.5t55.5 8.5t48.5 -6t33.5 -23q6 -8 5.5 -25.5t-3.5 -35.5t-8 -33t-9 -18q-61 -51 -106 -72.5t-76 -22.5t-49 14.5t-25 38t-5 48.5t12 46z" />
<glyph unicode=":" horiz-adv-x="141" d="M28 309q0 -17 12.5 -29.5t29.5 -12.5t29.5 12.5t12.5 29.5t-12.5 29.5t-29.5 12.5t-29.5 -12.5t-12.5 -29.5zM0 37q0 -17 12.5 -29.5t29.5 -12.5t29.5 12.5t12.5 29.5t-12.5 29.5t-29.5 12.5t-29.5 -12.5t-12.5 -29.5z" />
<glyph unicode=";" horiz-adv-x="141" d="M28 309q0 -17 12.5 -29.5t29.5 -12.5t29.5 12.5t12.5 29.5t-12.5 29.5t-29.5 12.5t-29.5 -12.5t-12.5 -29.5zM85 37q0 17 -13 29.5t-30 12.5t-29.5 -12.5t-12.5 -29.5q0 -15 8 -24.5t16 -13.5q0 -23 -4 -36t-8 -22l-8 -17q-4 -8 -4 -19q0 -7 7 -7t20 13t26 33t22.5 45 t9.5 48z" />
<glyph unicode="&#x3c;" horiz-adv-x="283" d="M227 34q5 5 5.5 16.5t-6.5 18.5l-125 125l150 75q6 3 8.5 15t-0.5 18q-3 5 -12 10t-17 1l-210 -105l175 -175q6 -6 16.5 -5t15.5 6z" />
<glyph unicode="=" horiz-adv-x="289" d="M25 268q-11 0 -17 -8t-7 -16q-1 -10 6.5 -17t17.5 -7h185q10 0 17 7.5t7 16.5q0 8 -7 16t-17 8h-185zM25 173q-11 0 -17 -8t-7 -16q-1 -10 6.5 -17t17.5 -7h185q10 0 17 7.5t7 16.5q0 8 -7 16t-17 8h-185z" />
<glyph unicode="&#x3e;" horiz-adv-x="283" d="M44 69q-7 -7 -6.5 -18.5t5.5 -16.5t15.5 -6t16.5 5l175 175l-210 105q-8 4 -17 -1t-12 -10q-3 -6 -0.5 -18t8.5 -15l150 -75z" />
<glyph unicode="?" horiz-adv-x="351" d="M5 533q-4 -11 1 -19t13 -11.5t17.5 -0.5t14.5 16q10 25 25.5 41.5t33.5 26.5t37.5 13.5t37.5 3.5q21 0 40 -13.5t30.5 -36t13 -50.5t-11.5 -58q-19 -44 -43 -78l-47 -67q-23 -33 -43.5 -69.5t-32.5 -84.5q-3 -12 2.5 -20t14.5 -10.5t18 2t12 17.5q12 46 32.5 80.5 t43.5 66.5l46 65q24 34 42 79q18 46 14.5 86.5t-21.5 71.5t-47.5 49t-62.5 18q-69 0 -115.5 -33.5t-64.5 -84.5zM130 29q0 15 -9.5 23t-21.5 8t-21.5 -8t-9.5 -23t9.5 -23t21.5 -8t21.5 8t9.5 23z" />
<glyph unicode="@" horiz-adv-x="326" d="M93 89q14 -9 29 -9.5t29 3t25.5 9.5t17.5 11q2 2 2.5 -3.5t0.5 -9.5q3 -21 16.5 -31t30.5 -2.5t34 36.5t28 86q12 63 -3.5 98.5t-44 51.5t-62 17t-58.5 -5q-28 -7 -56 -30t-48 -54.5t-29.5 -69t0.5 -72.5q9 -33 28.5 -55t47 -35t61 -17.5t69.5 -2.5q13 1 17.5 6t3.5 10.5 t-5.5 9.5t-10.5 4q-51 -4 -91.5 8t-64 37.5t-27.5 62.5t17 83q15 32 42.5 54.5t59 32t62.5 3.5t52 -31q12 -14 14 -38.5t-1.5 -51t-11.5 -51.5t-16 -41.5t-15 -20t-9 12.5q-6 51 6.5 90t21.5 62q2 6 -1 10.5t-8 6t-11 -0.5t-9 -9q-11 -24 -17 -45.5t-9 -38.5q-4 -17 -4 -27 v-10q-20 -16 -45.5 -23.5t-41.5 3.5q-17 12 -14 34t17.5 43.5t37.5 36.5t47 12q8 -1 12 4t3.5 11t-5 11t-13.5 5q-39 1 -68.5 -21.5t-45 -53t-13.5 -61t26 -45.5z" />
<glyph unicode="A" horiz-adv-x="640" d="M471 668q-58 -14 -124 -70.5t-130 -145.5t-120.5 -203.5t-93.5 -243.5q-3 -12 3 -20t15.5 -10.5t19 1.5t13.5 16q15 48 28 84.5t24.5 65t21.5 50.5l19 41l24 3l320 40l23 3l1 -24q1 -24 1.5 -63.5t-1 -89.5t-7.5 -102q-1 -13 6.5 -19t16.5 -6q10 0 19 6.5t10 18.5 q7 58 8.5 132t-1.5 149.5t-11 147.5t-20 126.5t-28.5 86t-36.5 26.5zM460 613q3 1 10.5 -21.5t16 -61.5t15.5 -90.5t10 -108.5q0 -1 -9 -1.5t-15 -1.5l-288 -36l-24 -3q25 46 57 95t69 93t77 80t81 56z" />
<glyph unicode="B" horiz-adv-x="694" d="M82 50h-10q-9 0 -22 -0.5t-19 -0.5q-14 0 -20.5 -8t-6.5 -18t6.5 -18t20.5 -8q11 0 48 1t89.5 5.5t114 13.5t122 24.5t113.5 37.5t88.5 53.5t47.5 73t-11 95.5q-15 36 -41.5 56t-53 30.5t-45.5 12.5l-19 3l14 7q14 6 31.5 20.5t30.5 37.5t11 56q-4 52 -39.5 81.5 t-87.5 41.5t-113.5 10.5t-118.5 -9.5t-101.5 -19.5t-62.5 -19.5q-11 -5 -14 -15t0.5 -20t12 -15.5t20.5 -1.5q42 15 90.5 26.5t96.5 17.5t93 6t81 -8.5t59.5 -25t29.5 -43.5q6 -28 -12 -48t-44.5 -34.5t-54 -23t-40.5 -14.5q-14 -6 -19.5 -13.5t-4.5 -14.5t8.5 -11.5 t18.5 -5.5q16 -1 47.5 -2t65 -7.5t64.5 -23t48 -49.5q21 -42 5.5 -74.5t-53.5 -56.5t-91 -41t-107.5 -28t-103 -17.5t-77 -9t-30.5 -2.5q15 54 29 117.5t25.5 128.5t20.5 130t15 122q1 13 -6.5 19t-17.5 6t-18.5 -6t-9.5 -19q-5 -54 -13.5 -118t-20.5 -130t-26.5 -131 t-32.5 -123z" />
<glyph unicode="C" horiz-adv-x="628" d="M148 -8q51 -20 109 -16t113 22t100.5 46t71.5 56q9 10 8 20.5t-7.5 17.5t-16 8.5t-18.5 -6.5q-40 -36 -86.5 -61.5t-94 -38t-91.5 -12.5t-78 18q-35 17 -50 49.5t-13.5 74.5t17.5 90t43 95.5t64 91.5t79.5 77.5t89.5 54t95 20.5q22 0 35 -9q14 -8 22 -18l14 -20 q6 -8 17 -8q19 1 22 18.5t-9 38t-39.5 36.5t-69.5 14q-58 -2 -114 -27.5t-105.5 -66t-90.5 -92.5t-70 -108.5t-43 -113t-9.5 -105.5t30 -87.5t75.5 -58.5z" />
<glyph unicode="D" horiz-adv-x="686" d="M609 454q13 -73 -5.5 -130t-56.5 -98t-89 -70t-102.5 -47t-96.5 -28.5t-72 -14t-28 -3.5q28 112 54 234t32 248q0 13 -8 19t-17.5 5.5t-18 -7.5t-8.5 -20q-3 -53 -10 -107.5t-19 -113.5q-10 -59 -26 -125l-34 -141q-2 0 -12 -1.5t-28.5 -3t-35.5 -2.5q-13 -1 -18.5 -9 t-4.5 -18t8 -17.5t19 -7.5q70 4 148.5 16t154 35t142 58.5t113 87t66.5 120t3 157.5q-11 56 -42.5 93t-78 58t-104.5 27t-121.5 1t-129.5 -20.5t-128 -37.5q-12 -4 -15.5 -14t-0.5 -19.5t11.5 -15t20.5 -1.5q16 6 59 19t99 23.5t118 15t116.5 -7.5t94.5 -43.5t51 -93.5z" />
<glyph unicode="E" horiz-adv-x="600" d="M61 25q16 -23 47.5 -33t73 -10.5t89 6t95.5 16.5q48 11 92 23l79 21q12 3 17 13t3 19.5t-10 15.5t-21 3l-130 -33q-66 -16 -122.5 -25t-98.5 -7.5t-58 16.5q-12 12 -13.5 44t3.5 70.5t13 76t13.5 60.5t6.5 25q38 1 70 4t60.5 6.5t55 8t54.5 10.5q13 3 18 12.5t3.5 19 t-9.5 16.5t-20 4l-22 -5q-22 -4 -54.5 -9t-70.5 -9.5t-71 -4.5l4 17q4 16 13 41.5l20 55.5t24 57q5 10 38.5 19t82.5 16t107.5 11.5t113.5 4.5q10 0 15 8t4.5 18t-6 18t-16.5 8q-63 -1 -127.5 -5.5t-118 -13t-90.5 -21t-45 -28.5q-19 -40 -37.5 -93t-34.5 -110.5t-28 -114.5 t-18 -106t-5 -85t11 -51z" />
<glyph unicode="F" horiz-adv-x="600" d="M27 23q1 -13 9.5 -19.5t17.5 -6.5q10 0 18 6.5t7 19.5q-1 19 4 56.5t12.5 78.5t15.5 80t13.5 62.5t5.5 25.5q77 3 146.5 10.5t125.5 18.5q13 2 18.5 11.5t5 19t-8 16.5t-20.5 5l-27 -5q-28 -4 -67 -9t-82.5 -9.5t-76.5 -4.5l4 17q4 17 12 43t18.5 55.5t23.5 55.5 q4 9 42 18t93.5 16.5t121 12t126.5 4.5q13 0 19.5 8t6.5 18t-6.5 18t-19.5 8q-42 0 -88.5 -2t-92.5 -6.5t-88 -10t-75 -13t-54.5 -16.5t-26.5 -19q-19 -40 -36.5 -93t-32.5 -110t-27.5 -114.5t-21 -106.5t-12.5 -86t-3 -53z" />
<glyph unicode="G" horiz-adv-x="682" d="M424 346q-13 0 -19 -8t-5.5 -18t7.5 -18t20 -8q38 0 69 2t58 5t53 8t54 11q13 3 18 12t4 19t-8.5 17t-20.5 4q-57 -12 -110.5 -19t-119.5 -7zM142 -7q35 -15 76.5 -10t83.5 22.5t83 44.5t75 57t58.5 60.5t35.5 54.5q5 12 1 22.5t-12 15.5t-17.5 4t-15.5 -13 q-15 -29 -40.5 -59t-58 -57.5t-68.5 -49t-71 -35t-66.5 -15.5t-54.5 11q-35 19 -49.5 53t-12 76.5t18.5 90t43.5 94.5t64 90t79 76t88.5 53t93 20q22 0 35 -8.5t21 -18.5l16 -20q6 -8 16 -8q19 1 22 18.5t-9 38t-39.5 36.5t-69.5 14q-58 -2 -114 -27.5t-105 -65.5t-90 -92 t-69.5 -108t-42.5 -112.5t-9.5 -105.5t29.5 -88t75 -59z" />
<glyph unicode="H" horiz-adv-x="618" d="M499 5q7 34 15 83.5t16 106.5t15 118l13 121l12 113q6 54 9 95q1 13 -7 20.5t-18 7.5q-9 0 -17.5 -6.5t-9.5 -19.5q-3 -46 -7 -93q-6 -47 -10 -85l-7 -64l-3 -24l-351 -44l6 28q6 28 13.5 70.5t15 93t10.5 95.5q1 13 -6.5 20t-17.5 8t-18.5 -5t-9.5 -19 q-11 -101 -25.5 -186.5t-30.5 -159.5t-32.5 -140t-29.5 -127q-3 -13 4 -21t16.5 -10t19 3t12.5 18l22 98l20 89l14 65l6 26l355 45l-3 -27q-2 -28 -7.5 -72t-14.5 -100.5t-21 -114.5q-3 -13 4 -20.5t16.5 -8.5t19 4.5t12.5 18.5z" />
<glyph unicode="I" horiz-adv-x="268" d="M102 12l29 127q15 66 29.5 140.5t27.5 160t23 186.5q1 12 -6.5 19.5t-17.5 8t-19 -6t-10 -21.5q-11 -101 -23.5 -184.5t-26.5 -155.5q-14 -74 -28 -138l-29 -125q-3 -13 3.5 -21.5t16 -10.5t19 3t12.5 18z" />
<glyph unicode="J" horiz-adv-x="517" d="M406 194l62 436q2 12 -3.5 21t-16.5 10q-12 2 -21 -7t-11 -21l-61 -425q-9 -62 -44.5 -98.5t-82.5 -52t-97.5 -11.5t-87.5 22q-12 6 -21.5 1.5t-13.5 -13.5t-2 -19t14 -16q35 -18 76 -24.5t81.5 -2.5t79 19t69.5 40t52.5 60.5t27.5 80.5z" />
<glyph unicode="K" horiz-adv-x="612" d="M85 12l27 121l24 111q10 50 17 80l6 31l77 37q70 -126 143.5 -220.5t162.5 -170.5q10 -8 20.5 -6.5t17 9t7.5 17.5t-9 18q-78 66 -155 161.5t-140 216.5l28 15l70 42t90 60.5t88 72.5q10 9 9 19.5t-8 17.5t-17.5 8t-20.5 -8q-50 -47 -111 -88t-115 -71.5t-90 -48.5 l-37 -17l1 10q2 10 5 34t7.5 63.5t10.5 98.5q1 13 -6.5 20.5t-17 8t-18.5 -6t-10 -21.5q-10 -101 -22.5 -185.5t-27 -158t-29.5 -137.5l-29 -124q-3 -13 3.5 -21.5t16 -11t19.5 3t13 20.5z" />
<glyph unicode="L" horiz-adv-x="610" d="M72 24q15 -23 52.5 -31.5t86 -8t103 8t103.5 17t88 18.5t57 12q13 3 18 12t3 18.5t-10 16.5t-22 4l-131 -27q-70 -14 -133.5 -21.5t-109.5 -6t-58 21.5q-5 8 -2 39t11 77t21 103.5t29.5 118t35.5 121t38 112.5q4 10 -2.5 17t-16 9t-19.5 -1.5t-14 -14.5 q-16 -44 -34.5 -102.5t-36 -122t-32.5 -126.5t-24 -117t-10 -93t9 -54z" />
<glyph unicode="M" horiz-adv-x="892" d="M7 30q-3 -15 4 -23.5t16.5 -10.5t19 4t12.5 20q14 74 38.5 144.5t52.5 132t57.5 112.5t54 88t41.5 57.5t21 21.5q3 0 5.5 -16.5t6 -43t9 -58.5t14.5 -63q6 -23 17 -53t22.5 -57t22 -46t17.5 -19q6 0 16 11.5t22 31t25 43.5l26 47l24 45l19 35l27 43l31 45l29.5 39 t24.5 25q2 1 3 -16t2.5 -48.5t4.5 -74.5t9 -93q4 -30 13 -76t21 -96t26 -99.5t29 -86.5q5 -13 15 -16.5t19 0t14.5 12.5t1.5 21q-37 102 -57 192t-30 164t-13 132l-5 96q-2 38 -6.5 56.5t-17.5 13.5q-32 -12 -63.5 -43.5t-61 -71t-55 -82.5t-44.5 -78l-31 -57 q-12 -22 -13 -17q-26 58 -38.5 118t-20.5 109t-16.5 79.5t-26.5 29.5q-14 -1 -40 -25.5t-57.5 -67.5t-66.5 -102t-67.5 -128t-59.5 -145.5t-43 -154.5z" />
<glyph unicode="N" horiz-adv-x="656" d="M32 14q-2 -14 5.5 -21.5t17.5 -8.5t18.5 5t10.5 19q8 64 19 130q11 68 23 130l22 118q11 56 21.5 97t18 65t12.5 25q4 0 17.5 -20.5t31.5 -54t37.5 -77t35.5 -88.5l42 -121q20 -59 37.5 -105.5t35 -76t35.5 -31.5q13 -1 27.5 26t28.5 74t28 110t26.5 133t23.5 143t19 140 q1 13 -6.5 19.5t-17 7t-18.5 -5.5t-10 -18q-12 -100 -28 -196.5t-32 -172t-28.5 -122t-17.5 -46.5q-3 0 -11 24l-22 63l-30 90l-38.5 103t-43 103.5t-46 90.5t-47.5 64t-47 24q-10 0 -23 -29.5t-27.5 -79t-29 -115t-27.5 -136.5t-24.5 -143t-18.5 -136z" />
<glyph unicode="O" horiz-adv-x="610" d="M226 -18q63 -18 117.5 -2.5t98 54t75 95t48.5 120t18 129t-17 122t-55.5 99t-96.5 59.5q-63 18 -118.5 2.5t-100 -53.5t-77 -94.5t-50.5 -119.5t-19 -128.5t17.5 -122t57.5 -99.5t102 -61zM399 608q47 -14 76 -49t42.5 -82.5t12 -103t-15.5 -110t-39.5 -103t-61 -81.5 t-79.5 -47t-94 1t-81 51t-45.5 83.5t-12.5 103t17 109t41.5 101.5t63 81t81.5 46.5t95 -0.5z" />
<glyph unicode="P" horiz-adv-x="660" d="M95 295q-2 -12 5 -19t17 -7h53l-4 -23l-12 -61l-16 -81q-9 -44 -19 -84q-3 -14 3.5 -22t16.5 -9.5t19.5 3.5t12.5 19l19 87l16 83q8 38 12 63l5 25l32 1q32 2 80.5 9t106 21.5t108 39.5t86 63.5t41.5 92.5q5 51 -20 86t-71 55t-109 24.5t-134 -4.5t-146 -31t-144 -56 q-17 -8 -22 -19.5t-1 -20t15.5 -12t27.5 3.5q58 28 109.5 45t95.5 27t82 13.5t71 3.5q11 0 30.5 -1t42.5 -5t46 -11.5t41 -20t27.5 -31.5t5.5 -46q-7 -40 -38.5 -68t-75 -47.5t-92.5 -31t-90.5 -18t-68.5 -8.5l-27 -2l3 18q3 18 7.5 47.5t9.5 67t9 76.5q1 13 -6.5 20.5 t-17.5 8.5t-18.5 -5.5t-9.5 -19.5q-3 -39 -9 -77l-10 -69q-4 -30 -8 -48l-3 -19h-50q-29 0 -34 -26z" />
<glyph unicode="Q" horiz-adv-x="632" d="M569 312q7 50 2.5 104t-23.5 102t-54 85.5t-90 54.5q-60 19 -114.5 4.5t-99 -51.5t-78 -92t-52.5 -117t-22 -127t14 -122.5t55 -102t100 -66.5q41 -14 77.5 -12t65.5 12.5t51 25.5q23 14 33 24l11 11q6 -7 20.5 -16.5t33 -19t39 -18t38 -11.5t30 0.5t14.5 17.5 q2 15 -10.5 22.5t-33.5 14.5t-47 18t-50 32l11 17q12 16 27 46t30 72t22 92zM399 77l-13 -12q-13 -12 -36.5 -23t-56 -16.5t-70.5 8.5q-49 17 -78.5 54.5t-42.5 85.5t-10.5 103.5t18 108.5t42.5 100t63 79.5t80 45t93 -2.5q46 -14 74 -46t42 -73.5t16 -88t-4 -90.5 q-6 -43 -19.5 -78.5t-27 -61.5t-23.5 -40l-11 -15q-23 17 -46 30.5t-42 20.5t-32.5 5.5t-19.5 -14.5q-6 -14 2 -22q7 -7 23 -15l37 -18q21 -10 42 -25z" />
<glyph unicode="R" horiz-adv-x="683" d="M227 267q1 -1 20 -17l56 -47q37 -30 84.5 -64.5t105.5 -72t119 -68.5q12 -6 22 -2t14.5 13t2 19.5t-14.5 16.5q-77 39 -138.5 80t-105 74.5t-66.5 54.5l-23 21l27 3q26 4 66 12.5t87 24.5t88.5 40.5t71 59t33.5 81.5q5 52 -20 87t-71 54.5t-109 24t-134 -4.5t-145.5 -31 t-143.5 -56q-17 -8 -22 -19.5t-1 -20t15.5 -12t27.5 3.5q58 28 109.5 45t95.5 27t82 13.5t71 3.5q11 0 30.5 -1t42.5 -5t46.5 -11t41 -20t27 -32t5.5 -46q-7 -39 -38 -67.5t-74 -48t-91.5 -31t-89.5 -18t-68 -8.5l-27 -2l3 18q3 18 7 47.5t8.5 67t7.5 76.5q1 13 -7 20.5 t-17.5 8.5t-18 -5.5t-9.5 -19.5q-2 -30 -7 -71t-12 -88t-16 -97l-18 -96q-9 -48 -18.5 -90t-18.5 -72q-4 -13 2.5 -21t16.5 -9.5t20 3.5t13 18q11 40 21 85t17.5 83t11.5 63z" />
<glyph unicode="S" horiz-adv-x="509" d="M15 56q24 -25 64.5 -41.5t88 -21.5t97 2t90 30t68.5 62t32 97q4 60 -18 97t-58 61t-79 38.5t-80 29.5t-60.5 34.5t-21.5 52.5q3 49 35.5 75.5t79.5 34t101 -2t100 -32.5q12 -6 21.5 -1.5t13.5 13t2 19t-14 16.5q-33 17 -73.5 28t-82.5 13.5t-83 -5t-73.5 -26.5t-54 -51.5 t-24.5 -80.5q-3 -34 10 -58t36 -41t53 -29l61 -23q32 -12 61.5 -25t52 -31t35 -43.5t8.5 -62.5q-4 -43 -26 -71.5t-54 -45t-71 -21t-77 0t-71.5 17.5t-55.5 33q-10 9 -19.5 7t-15.5 -9.5t-6.5 -18t8.5 -20.5z" />
<glyph unicode="T" horiz-adv-x="546" d="M273 591l-4 -43q-4 -44 -14 -121t-28.5 -181.5t-46.5 -225.5q-3 -14 3.5 -21.5t16.5 -9t19.5 4t12.5 18.5q28 120 46.5 226t28.5 185.5t14 125.5l4 46l230 18q15 1 20.5 13t4.5 16t-8.5 14t-21.5 9l-487 -37q-15 -1 -21 -12t-6 -15q0 -2 1.5 -6t5.5 -8.5t9 -7.5t13 -3z " />
<glyph unicode="U" horiz-adv-x="586" d="M153 630q-3 -8 -14.5 -43t-25.5 -85t-27 -111t-19.5 -122t-2.5 -116.5t25 -94.5t61.5 -57t107.5 -4q76 16 138 64.5t102.5 128t56 189.5t-0.5 248q-2 13 -10.5 19t-18.5 5t-17.5 -8.5t-5.5 -20.5q16 -124 3.5 -223t-46.5 -171.5t-87.5 -117.5t-120.5 -61q-50 -12 -79 3.5 t-43 49.5t-14.5 82.5t6.5 102t19.5 108t25.5 100.5q13 45 24 79l15 46q4 13 -2 21t-16 9.5t-20 -3t-14 -17.5z" />
<glyph unicode="V" horiz-adv-x="584" d="M85 632q-4 12 -13.5 15t-18.5 -1.5t-14.5 -14t-0.5 -22.5q53 -151 81.5 -266t44.5 -193t26.5 -119t28.5 -44q12 -2 42.5 21.5t69 66.5t80.5 103.5t77.5 132t61 151t29.5 161.5q1 14 -7 21.5t-18 8t-18.5 -4.5t-8.5 -16q-3 -68 -25.5 -145.5t-60.5 -154.5t-90 -148.5 t-115 -128.5l-8 49q-8 49 -27 130t-47.5 184.5t-68.5 213.5z" />
<glyph unicode="W" horiz-adv-x="907" d="M123 596q0 13 -7.5 19.5t-17.5 6t-18 -7.5t-9 -20q-4 -66 3.5 -137.5t23 -140.5t35 -131.5t40 -109.5t38 -75.5t28.5 -28.5t20 7.5t17.5 22t17.5 35.5l20 47l24 55l32 72q18 38 37 73.5t37 58.5q2 3 5 -15t9 -49t15.5 -71t25 -82t38.5 -81t55 -67q14 -13 24.5 -1t23 45 t30 87t47 125t74 158.5t110.5 188.5q8 13 5.5 24t-11 16t-20 2t-20.5 -16q-32 -48 -63.5 -102.5t-60.5 -111.5t-54 -114t-43 -109l-12 -33l-12 -38l-12 -32l-4 -13q-23 31 -39 71.5t-27 83.5t-19 84t-15 73t-14.5 51.5t-16.5 19.5t-23 -15.5t-31 -38.5t-35 -52l-32 -56 q-15 -26 -32 -64l-32 -74l-25 -61l-10 -25q-1 4 -11 27.5t-24 62.5t-30 90.5t-28.5 111t-20.5 124.5t-6 130z" />
<glyph unicode="X" horiz-adv-x="590" d="M153 641q-7 12 -16.5 13t-17.5 -5t-12 -16t2 -20l41 -76l44 -81l34 -63l13 -26l-22 -25q-22 -25 -56 -69.5t-76 -106t-82 -135.5q-6 -12 -2 -22t12 -15t18.5 -3.5t16.5 13.5q40 72 79.5 130.5t70.5 99.5q30 42 49 64l19 22q2 -2 12 -22l28 -54l38 -76l42 -83l37 -77 q6 -12 16 -15t19 1t14 13.5t-1 21.5l-55 115l-54 106l-41 77l-16 30l25 26l63 65l87 86l93 86q10 9 9.5 19t-7.5 17t-18 8.5t-21 -7.5l-92 -85l-83 -83l-60 -63l-23 -24l-13 26l-33 62l-41 78z" />
<glyph unicode="Y" horiz-adv-x="642" d="M308 -2q15 66 25 121t16 94t8 61l2 21q27 30 62 64l73 73q38 38 75.5 82t69.5 94q7 11 3 21t-13 15t-19.5 3.5t-16.5 -13.5q-12 -25 -42.5 -61.5t-65.5 -74.5l-69 -72l-56 -55l-22 -22q-32 28 -67.5 63t-69 73t-62 77t-47.5 76q-6 12 -15.5 13t-17.5 -5.5t-11 -17.5 t3 -23q42 -78 110.5 -153t145.5 -147l-2 -22q-2 -22 -8 -61t-15.5 -93.5t-24.5 -119.5q-3 -14 3.5 -22t16 -10t19 3t12.5 18z" />
<glyph unicode="Z" horiz-adv-x="539" d="M493 635q-6 6 -17 10.5t-24 4.5h-348q-15 0 -20.5 -9t-5.5 -17t5.5 -17t20.5 -9h331l-413 -511q-17 -22 -20 -36t2 -25q2 -5 4.5 -9.5t8 -8t16 -6t28.5 -2.5h386q15 0 20.5 8.5t5.5 17.5t-5.5 17.5t-20.5 8.5h-386l434 537q8 11 7 24.5t-9 21.5z" />
<glyph unicode="[" horiz-adv-x="277" d="M153 -17q0 8 -7 16t-17 8h-72l100 600h88q10 0 17 8t7 16t-7 16t-17 8h-129l-116 -696h129q10 0 17 8t7 16z" />
<glyph unicode="\" horiz-adv-x="363" d="M3 616l304 -608q4 -8 15.5 -12t19.5 0t10.5 14.5t-1.5 18.5l-304 608q-6 13 -16.5 15t-18.5 -2t-11 -13.5t2 -20.5z" />
<glyph unicode="]" horiz-adv-x="277" d="M119 631q0 -8 7 -16t17 -8h72l-100 -600h-88q-10 0 -17 -8t-7 -16t7 -16t17 -8h129l116 696h-129q-10 0 -17 -8t-7 -16z" />
<glyph unicode="^" horiz-adv-x="230" d="M12 436q-6 -6 -6 -15t6 -15t15 -6t15 6l75 75l75 -75q7 -7 15.5 -6.5t14.5 6.5t6 15t-6 15l-105 105z" />
<glyph unicode="_" horiz-adv-x="233" d="M24 -6q-9 0 -16.5 -8t-7.5 -16t7 -16t17 -8h184q9 0 16.5 8t7.5 16t-7.5 16t-16.5 8h-184z" />
<glyph unicode="`" horiz-adv-x="148" d="M84 406q7 -7 17 -7t17 7t7 17t-7 17l-75 75q-7 7 -17 7t-17 -7t-7 -17t7 -17z" />
<glyph unicode="a" d="M82 13q24 -20 56.5 -22.5t64 4.5t57.5 20.5t37 26.5l-1 -12v-23q0 -12 8 -18t17 -5.5t16.5 6.5t6.5 18q-3 50 2.5 97t15.5 88q8 41 20 75l20 58q4 11 -1.5 18.5t-14 10t-18 -1.5t-13.5 -15q-13 -33 -24 -74t-19 -78q-10 -36 -14 -61l-4 -25q-14 -16 -38.5 -30.5t-51 -23 t-52 -8.5t-41.5 15q-27 22 -36 50.5t-3 57.5t25.5 56t49.5 47.5t69 30.5t84 6q12 -1 18 6t6 16t-5.5 17t-17.5 9q-55 6 -103 -8.5t-85 -41.5t-60.5 -64t-29.5 -76t7.5 -77.5t51.5 -68.5z" />
<glyph unicode="b" d="M351 331q-29 21 -69 21t-76 -10q-36 -9 -62 -20l-26 -11l51 300q2 14 -6 20t-15 7q-8 1 -16.5 -3t-10.5 -15l-101 -606q-2 -11 3.5 -17.5t13.5 -8.5q10 -2 19 2.5t11 16.5l41 246l17 9q17 8 42.5 17.5t55.5 17.5t56.5 7t45 -14.5t20.5 -45.5q3 -47 -9.5 -80t-34 -56 t-49.5 -36.5t-54.5 -21t-48 -10.5t-32.5 -4q-12 -1 -17 -9t-4.5 -16.5t7.5 -15.5t19 -7q24 1 54 7t60.5 17.5t58 28t45.5 37.5q24 28 38 64t16 72t-8.5 67.5t-34.5 49.5z" />
<glyph unicode="c" horiz-adv-x="417" d="M55 35q24 -31 62 -41.5t79.5 -6t81.5 20.5t68 38q11 9 12 18.5t-4.5 16.5t-15.5 9.5t-19 -4.5q-25 -19 -58.5 -32.5t-67 -17.5t-62 4t-43.5 31q-13 21 -12 51.5t14.5 62.5t39 61t60.5 47t80 21.5t97 -16.5q11 -4 19.5 1t12 13.5t0.5 17.5t-14 13q-66 23 -122.5 17.5 t-101 -29t-76 -61.5t-46 -80t-11.5 -83t27 -72z" />
<glyph unicode="d" horiz-adv-x="465" d="M297 43l-4 -24q-2 -12 3.5 -20t15.5 -10q11 -2 19 3.5t10 17.5l100 600q2 11 -4 17.5t-15 8.5q-10 2 -18.5 -2t-10.5 -15l-45 -268q-1 0 -18.5 1t-47.5 0t-63.5 -7t-66.5 -19.5t-57 -37.5q-26 -26 -46 -60.5t-28 -71t-1.5 -71.5t34.5 -63q24 -24 56.5 -29t64 1.5t60 18 t45 20.5t17.5 10zM307 107q-1 -1 -17 -11t-43.5 -23.5t-56.5 -23.5t-57 -10t-45 17t-21 42t2.5 52t22 54.5t37.5 49.5q25 26 61 37t70 13q32 3 56 1l24 -2z" />
<glyph unicode="e" horiz-adv-x="452" d="M68 13q31 -25 73 -26.5t85 10t82 31t64 36.5q10 7 11 15.5t-3 15.5t-12.5 9.5t-18.5 -3.5q-36 -23 -74.5 -41t-73.5 -26.5t-63.5 -4t-44.5 25.5q-14 18 -15.5 49.5t8 66t30.5 67t52.5 53t72 24.5t90.5 -19q22 -10 15.5 -26.5t-35 -36.5t-75 -42t-104.5 -43 q-11 -4 -15 -11t-2.5 -13t9 -9.5t18.5 -0.5q68 19 117 45.5t95 58.5q6 4 18.5 18.5t18 32.5t-3 37t-43.5 33q-64 25 -117 18t-93 -36.5t-65.5 -72.5t-35 -87.5t-1 -84.5t35.5 -63z" />
<glyph unicode="f" horiz-adv-x="307" d="M62 8q-2 -14 4.5 -19t15.5 -7t17.5 0.5t10.5 16.5l51 306l110 8q12 1 16.5 10.5t4.5 15.5t-6 14.5t-18 7.5l-99 -7q4 27 15 64.5t32 71.5t54 58t81 24q12 0 18 7.5t6 16.5t-6 16.5t-18 7.5q-43 0 -76 -14.5t-57.5 -37.5t-41.5 -52t-28.5 -59t-18.5 -58t-10 -48l-78 -6 q-12 -1 -16.5 -10.5t-4.5 -15.5t6 -14.5t18 -7.5l67 5z" />
<glyph unicode="g" horiz-adv-x="447" d="M136 -295q42 0 75 12.5t57 35t39 53t21 67.5l78 468q2 14 -6 19t-16 6t-16 -3.5t-10 -16.5l-38 -223l-14 -13q-14 -14 -39 -29.5t-57.5 -27t-67.5 -8.5q-30 3 -45.5 17t-20 35t0 46.5t13.5 50.5q8 23 27.5 45t47.5 38t63.5 23.5t74.5 0.5q10 -2 17 5t8.5 16t-2.5 17 t-14 9q-41 5 -81 -1.5t-76 -23.5t-65.5 -47.5t-47.5 -73.5q-16 -37 -17 -72.5t11 -63.5t37 -46.5t61 -22.5q39 -4 71 4t55 19q24 10 36 20l12 10l-28 -168q-11 -69 -49 -99t-95 -30q-20 0 -33.5 5.5t-23.5 14.5t-18 20.5t-17 22.5q-7 9 -16.5 10t-16.5 -3.5t-10 -14t3 -19.5 q48 -84 132 -84z" />
<glyph unicode="h" d="M389 263q-3 46 -24 67.5t-51 26t-64.5 -3t-63.5 -17.5q-28 -11 -48 -21l-20 -10l51 306q2 11 -5 19t-14 9q-6 0 -16.5 -4t-12.5 -15l-101 -606q-2 -11 3.5 -19t14.5 -10t18.5 3.5t11.5 16.5l40 240l16 9q16 10 42 21.5t55.5 22t55.5 12t44 -8.5t20 -39q1 -13 -3 -38 q-4 -26 -10 -60l-14 -74l-17 -82q-2 -12 4 -18.5t15 -7.5t18 3.5t11 16.5l16 82l15 76q6 36 9.5 62.5t3.5 40.5z" />
<glyph unicode="i" horiz-adv-x="230" d="M102 7l55 330q2 11 -4.5 18.5t-14.5 9.5t-17.5 -3t-11.5 -16l-55 -330q-2 -11 4.5 -18.5t14.5 -9.5t17.5 3t11.5 16zM185 458q0 15 -9.5 23t-21.5 8t-21.5 -8t-9.5 -23t9.5 -23t21.5 -8t21.5 8t9.5 23z" />
<glyph unicode="j" horiz-adv-x="230" d="M119 7l55 330q2 11 -4 19t-15 10t-18 -3.5t-11 -16.5l-55 -330q-8 -48 -19.5 -82t-31.5 -62.5t-52 -55t-81 -59.5q-9 -6 -10.5 -15.5t3 -17t13.5 -11t19 2.5q52 32 87.5 63t59.5 65.5t38 74t22 88.5zM195 458q0 15 -9.5 23t-21.5 8t-21.5 -8t-9.5 -23t9.5 -23t21.5 -8 t21.5 8t9.5 23z" />
<glyph unicode="k" horiz-adv-x="420" d="M358 16q-26 45 -61 90t-67 81l-55 59l-22 23q63 23 112.5 48t71.5 42q9 7 9.5 16.5t-5 17t-15 10t-18.5 -4.5q-25 -18 -58 -35t-63 -30l-51 -21l-20 -7l53 306q3 25 -19 28q-9 2 -18 -3t-11 -16l-101 -606q-2 -11 3.5 -16.5t14.5 -7.5q10 -2 19 1t11 14l40 240l16 -17 l41 -44l53 -60q28 -32 55 -68t44 -66q6 -11 15 -12t17 4t11.5 14t-2.5 20z" />
<glyph unicode="l" horiz-adv-x="212" d="M86 5l101 606q3 25 -19 28q-9 2 -18 -3t-11 -16l-101 -606q-2 -11 3.5 -16.5t14.5 -7.5q10 -2 19 1t11 14z" />
<glyph unicode="m" horiz-adv-x="660" d="M20 14q-3 -25 18 -28q9 -2 18.5 3t11.5 16l30 180q0 3 8 13t19 22l23 24q12 12 24 21q35 28 66.5 40.5t45.5 12.5q11 0 15.5 -26t2.5 -68.5t-10 -97t-22 -112.5q-3 -14 3 -21.5t15 -9t18 4t12 17.5q6 25 10 53l8 53q4 24 6 40t3 16q2 11 25 36t55 49.5t66 42t58 14.5 q6 -1 7.5 -18t0.5 -43.5t-5 -59t-9 -65t-11 -61.5t-12 -48q-3 -11 2.5 -18.5t15.5 -9.5q9 -2 18.5 3t11.5 16q7 27 14 64.5t12.5 77.5t8.5 79t0.5 70t-11 49.5t-24.5 18.5q-38 0 -68.5 -10t-56.5 -26t-48.5 -35.5t-43.5 -40.5l-1 18q0 18 -4 38.5t-13 38t-27 17.5 q-44 0 -80 -14.5t-62 -31.5q-24 -18 -38 -32l-14 -15l12 70q2 11 -4 20t-15 10q-10 2 -18.5 -4t-10.5 -17z" />
<glyph unicode="n" d="M20 14q-3 -23 18 -28q11 -2 19.5 2t10.5 17l31 186q1 1 18 15l45 34q28 21 58 39.5t56.5 30t39.5 6.5q17 -7 22 -40.5t1 -79t-15 -95t-26 -87.5q-4 -11 1 -18.5t14 -9.5t18.5 1.5t13.5 14.5q17 46 29 100.5t14 105.5t-6.5 92t-32.5 59q-18 14 -48 8t-62 -22t-62 -35 t-47.5 -32.5t-18.5 -14.5l13 78q2 11 -4 19.5t-15 10.5t-18 -4t-11 -17z" />
<glyph unicode="o" horiz-adv-x="442" d="M245 360q-68 0 -115 -27.5t-73.5 -68.5t-32 -89t10 -89t51.5 -68.5t93 -27.5q67 0 114.5 27.5t74 68.5t32 89t-9.5 89t-51.5 68.5t-93.5 27.5zM188 38q-46 0 -73.5 20.5t-37.5 50.5t-4 66t27 66t55.5 50.5t80.5 20.5t73.5 -20.5t37.5 -50.5t4 -66t-27 -66t-55.5 -50.5 t-80.5 -20.5z" />
<glyph unicode="p" d="M361 338q-24 21 -57.5 24.5t-67 -3t-63.5 -19t-47 -22.5q0 1 1 8.5t-3 16.5t-18 11q-9 1 -17.5 -2.5t-10.5 -19.5l-100 -600q-3 -25 18 -28q10 -2 18.5 2t10.5 15l88 528q1 6 26.5 21.5t61 28.5t71.5 16.5t58 -14.5q20 -17 24.5 -41.5t-4 -52t-27.5 -55t-46.5 -50 t-62 -37.5t-72.5 -17q-12 -1 -18 -8.5t-6 -16.5t6 -16t18 -7q44 -1 86 16.5t77 46t60 65t34.5 74t1.5 73.5t-40 63z" />
<glyph unicode="q" horiz-adv-x="430" d="M45 13q22 -20 54.5 -24.5t65.5 1t63 18.5t49 28l-5 -30l-9.5 -75t-10.5 -100.5t-5 -106.5q0 -12 7.5 -18t16.5 -6t16.5 6t7.5 18q3 78 9.5 147t17.5 141t27 150l37 176q3 12 -3.5 19t-15.5 8t-18 -4t-11 -17l-17 -80l-17 -81l-14 -61l-5 -25q-23 -19 -52.5 -34t-59 -22.5 t-56 -6t-42.5 16.5q-18 16 -18.5 41t13 53t37 56t53.5 50t63 36t65 14q12 0 17 7.5t4.5 16.5t-7.5 16.5t-19 7.5q-42 -1 -84 -19t-78 -47t-63 -64.5t-39.5 -72.5t-7.5 -72t34 -61z" />
<glyph unicode="r" horiz-adv-x="372" d="M111 259l12 76q2 18 -3 23t-16 7t-19 -3t-10 -18l-55 -334q-2 -13 4.5 -18.5t15.5 -7.5t17.5 2t10.5 15l28 168q1 6 10 18.5t23 26.5t32 28t36 24q39 22 79.5 29.5t72.5 5.5q12 -1 18 6.5t6 16.5t-5.5 17t-17.5 8q-59 3 -103.5 -10.5t-74.5 -31.5t-46 -33z" />
<glyph unicode="s" horiz-adv-x="380" d="M55 49q-11 5 -19 0t-11 -13.5t0 -18t14 -13.5q12 -5 35.5 -11t51.5 -9t58.5 -1t56 12.5t43.5 31t22 54.5q4 38 -10 62.5t-38.5 40.5t-53.5 26l-54 18q-25 8 -41.5 18.5t-14.5 28.5q2 25 25 35.5t53 10.5t60 -8t46 -20q9 -7 17.5 -3.5t13 11t3.5 17t-11 15.5 q-28 18 -69.5 26.5t-81 3.5t-69 -25t-34.5 -60q-4 -32 11 -50.5t39.5 -30.5t54 -20t54.5 -18.5t40.5 -27t12.5 -44.5q-3 -31 -29 -44t-59 -14t-66 5.5t-50 14.5z" />
<glyph unicode="t" horiz-adv-x="346" d="M94 8q-2 -13 4.5 -18.5t16.5 -7.5q9 -2 17 2t10 15l51 306l117 9q10 1 16.5 9.5t6.5 16.5t-8 15t-18 7l-106 -8l22 135q2 14 -4.5 20t-14.5 7q-9 2 -18 -4t-11 -18l-24 -143l-103 -7q-10 0 -15.5 -8t-5.5 -18q0 -9 6.5 -15.5t17.5 -6.5l92 6z" />
<glyph unicode="u" horiz-adv-x="448" d="M76 22q27 -27 60.5 -30.5t66 6t60 26t42.5 30.5q0 -1 1 -10l2 -22q2 -14 3 -22q3 -12 11.5 -17t17 -3.5t15 8.5t3.5 19q-8 40 -5.5 81.5t10 83.5t18.5 82l22 80q3 11 -2.5 18t-14.5 9t-18 -2.5t-13 -15.5q-11 -34 -20.5 -74t-16.5 -75q-7 -34 -11 -58l-4 -24 q-11 -11 -35 -29t-52.5 -30.5t-57 -14.5t-48.5 18q-15 15 -21 36.5t-5 46t7 51.5t14 53.5t17.5 50.5t16.5 44q4 11 -1 18.5t-14 9.5t-18.5 -2t-13.5 -15q-12 -30 -27.5 -73t-23.5 -89t-2 -89.5t37 -75.5z" />
<glyph unicode="v" horiz-adv-x="432" d="M155 52l-6 26q-6 26 -14 69t-17 96.5t-16 107.5q-1 12 -9 16t-17 2t-15.5 -9t-5.5 -19q7 -55 15 -106t16 -94.5t16 -77t15 -53.5q8 -23 24 -25.5t32 14.5q41 43 74.5 84.5t62.5 82.5q30 41 56 83l52 87q6 10 3 19.5t-10.5 14.5t-16.5 4.5t-15 -10.5 q-48 -80 -102.5 -160.5t-121.5 -151.5z" />
<glyph unicode="w" horiz-adv-x="748" d="M424 288q-2 12 -8.5 19t-14.5 9t-16.5 -2t-14.5 -14q-13 -23 -36 -57t-50.5 -70t-57 -68t-55.5 -51q-3 -2 -12.5 24t-20.5 68.5t-22 96.5t-18 108q-1 12 -9 16t-17 2t-15.5 -9t-5.5 -19q14 -111 36 -192t48 -141q9 -22 20.5 -21t30.5 15q39 30 75 70t63 76q28 36 44 60 l16 24q3 -21 8 -50.5t11 -61t13 -61t14 -49.5q8 -23 24 -25.5t32 14.5q41 43 74.5 84.5t62.5 82.5t55 83l53 87q6 10 3 19.5t-10.5 14.5t-16.5 4.5t-15 -10.5q-48 -80 -102.5 -160.5t-121.5 -151.5l-14 60q-14 60 -30 176z" />
<glyph unicode="x" horiz-adv-x="348" d="M6 28q-6 -10 -2 -19t11.5 -13.5t16.5 -3.5t15 11q18 30 35.5 56t32.5 46l26 33q11 14 15 20l8 -16l20 -38l25 -48l23 -48q5 -11 14 -13t17 2.5t12.5 13t-0.5 19.5l-25 48l-28 54l-22 43l-10 18q9 11 24 27t34 34l40 36l38 34q9 7 8.5 16.5t-7 16.5t-16 8.5t-18.5 -6.5 l-36 -31l-29 -28l-28 -28q-15 -15 -34 -37l-6 11l-15 30l-21 38l-22 40q-6 10 -15 11.5t-17 -3t-12 -13.5t2 -19l16 -30l20 -34l20 -36l16 -30l-13 -15q-13 -15 -32 -39t-41 -55t-40 -63z" />
<glyph unicode="y" horiz-adv-x="450" d="M101 -293q8 -4 19 -0.5t15 11.5l305 610q4 8 0 17.5t-11 12.5q-8 3 -18.5 0.5t-14.5 -10.5l-150 -300q-1 2 -8.5 21t-22.5 53t-35 72.5t-45.5 79.5t-53.5 73q-8 9 -16.5 8t-15 -7.5t-8 -16.5t6.5 -19q25 -28 49.5 -70t45.5 -84.5t38 -82t25.5 -62t9.5 -24.5l-125 -250 q-4 -8 -1 -18t11 -14z" />
<glyph unicode="z" horiz-adv-x="374" d="M5 17q3 -10 12.5 -13.5t20.5 -3.5h265q10 0 18.5 6t8.5 16q0 11 -7.5 18.5t-18.5 7.5h-224l255 254q7 6 10.5 15t-0.5 18t-12.5 12t-18.5 3h-253q-11 0 -19 -5.5t-9 -16.5t8 -18.5t20 -7.5h206l-251 -252q-6 -7 -10 -15.5t-1 -17.5z" />
<glyph unicode="{" horiz-adv-x="241" d="M140 -36q10 0 16 6.5t7.5 15t-2.5 16.5t-15 10q-18 3 -40 13.5t-36.5 32.5t-15 56.5t24.5 85.5q13 27 14 50.5t-4 41t-11 28.5t-6 14t7.5 9t16.5 20.5t17 40t9 66.5q1 50 9.5 81.5t20.5 50t27 26t28.5 9t25.5 0t18 -1.5q14 0 21.5 7.5t8 16.5t-6 16.5t-19.5 7.5 q-29 1 -60.5 -2.5t-58.5 -24t-44.5 -64t-17.5 -122.5q0 -36 -9.5 -60.5t-20.5 -40t-21 -23.5t-10 -11t7.5 -11t14 -24t7 -40.5t-14.5 -59.5q-23 -53 -19.5 -96t22.5 -73t49 -47.5t61 -19.5z" />
<glyph unicode="|" horiz-adv-x="103" d="M45 -33q8 0 16 7t8 17v647q0 10 -8 17t-16 7t-16 -7.5t-8 -16.5v-647q0 -10 8 -17t16 -7z" />
<glyph unicode="}" horiz-adv-x="305" d="M143 679q-10 0 -16.5 -6.5t-8 -15t3 -16.5t15.5 -10q18 -3 40 -13.5t36.5 -32.5t15 -56.5t-24.5 -85.5q-13 -27 -13.5 -50.5t4 -41t10.5 -28.5t6 -14t-7.5 -9t-16.5 -20.5t-17 -40t-9 -66.5q-1 -50 -9.5 -81.5t-20.5 -50t-27 -26t-28.5 -9t-25.5 0t-18 1.5 q-14 0 -21.5 -7.5t-8 -16.5t5.5 -16.5t20 -7.5q28 -2 60 2t59 24.5t44.5 64t17.5 122.5q0 36 9.5 60.5t20.5 40t21 23.5t10 11t-7.5 11t-14 24t-7.5 40.5t15 59.5q22 53 19 96t-22 73t-49 47.5t-61 19.5z" />
<glyph unicode="~" horiz-adv-x="279" d="M5 435q-6 -8 -4.5 -16t7 -13.5t13 -6.5t14.5 6q12 12 22 24t27 12q10 -1 20 -7l22 -14q12 -8 25.5 -14t29.5 -6t28 5t22 13t17 16l12 14q6 7 4 15.5t-7 14t-13 6.5t-14 -6q-3 -3 -8 -9t-12 -12t-14.5 -10.5t-14.5 -4.5q-11 0 -21 6l-22 14q-11 8 -24.5 14.5t-29.5 6.5 t-29 -6t-23.5 -14t-17 -16t-9.5 -12z" />
<glyph unicode="&#xa1;" horiz-adv-x="190" d="M96 475q-11 2 -20.5 -3t-11.5 -17l-74 -449q-2 -12 3.5 -21t16.5 -10q12 -2 21 7t11 21l73 438q4 29 -19 34zM77 579q0 -17 10.5 -25.5t23.5 -8.5t23.5 8.5t10.5 25.5t-10.5 25.5t-23.5 8.5t-23.5 -8.5t-10.5 -25.5z" />
<glyph unicode="&#xa2;" horiz-adv-x="395" d="M242 472q2 0 16.5 -0.5t38.5 -3.5t44 -10q11 -4 20 0.5t13.5 12.5t2 16t-13.5 12q-54 18 -84 19h-29l6 34q2 11 -2.5 19.5t-15.5 10.5t-19.5 -4t-10.5 -17l-8 -48q-2 0 -20 -6.5t-47 -23t-57 -43.5t-48.5 -67.5t-22.5 -95.5q-1 -37 12.5 -62t32.5 -39.5t40 -22.5t34 -10 t14 -2l-6 -36q-2 -9 4.5 -16.5t15.5 -9.5t17.5 3t10.5 14l8 48q2 0 19 3.5t49.5 16.5t67.5 38q12 8 12.5 18t-4.5 17t-15 9t-19 -5q-27 -21 -51.5 -32t-36.5 -14t-14 -3zM48 278q1 53 23.5 89t49.5 57.5t49 31.5l22 9l-46 -276l-16 1q-16 2 -34 10.5t-33.5 26.5t-14.5 51z " />
<glyph unicode="&#xa3;" horiz-adv-x="460" d="M421 37q10 9 10 19q0 11 -6 17.5t-15 8t-18 -5.5l-26 -21q-16 -12 -38 -12h-218l55 330h112q12 0 17.5 9t5.5 15t-5.5 15t-17.5 9h-103l20 122q3 20 24 39t50.5 27t61.5 -0.5t58 -42.5q6 -9 15.5 -9.5t17 5t10.5 14.5t-4 19q-22 31 -50 46.5t-58 19t-59 -4t-53 -23.5 t-40.5 -38t-20.5 -48l-21 -126h-75q-12 0 -18 -9t-6 -15t6 -15t18 -9h65l-55 -330h-25q-9 0 -16 -6.5t-6 -17.5q1 -24 21 -24h304q13 0 26 4.5t24 10.5q10 6 18 14z" />
<glyph unicode="&#xa5;" horiz-adv-x="457" d="M53 616q8 -51 23 -94t29 -75.5t24.5 -51.5t10.5 -22l-9 -54h-82q-9 0 -18 -8t-10 -16t5 -16t15 -8h82l-12 -72h-82q-11 0 -19.5 -6.5t-8.5 -17.5q0 -9 5.5 -16.5t14.5 -7.5h82l-24 -144q-2 -10 4.5 -15t17.5 -6q11 -2 19 5.5t10 17.5l23 142h82q9 0 18.5 8t9.5 16 t-5.5 16t-14.5 8h-82l12 72h82q9 0 18 8t10 16t-5 16t-15 8h-82l8 55q18 25 47.5 54t64.5 60l72 62l72 60q10 8 10.5 18t-4.5 17.5t-14.5 9.5t-19.5 -6l-137 -115q-62 -52 -108 -108l-8 12q-8 12 -19 37t-23.5 63.5t-21.5 90.5q-2 11 -10.5 15.5t-17.5 3t-15 -9.5t-4 -22z " />
<glyph unicode="&#xa6;" horiz-adv-x="103" d="M45 -289q8 0 16 7t8 17v409q0 10 -8 17t-16 7t-16 -7.5t-8 -16.5v-409q0 -10 8 -17t16 -7zM45 231q8 0 16 7t8 17v409q0 10 -8 17t-16 7t-16 -7.5t-8 -16.5v-409q0 -10 8 -17t16 -7z" />
<glyph unicode="&#xa7;" horiz-adv-x="396" d="M327 109q26 51 29.5 89t-9 66.5t-37 50t-54 39t-59.5 32t-53.5 30.5t-37 34.5t-8.5 42.5q9 47 34.5 68t59.5 21t71.5 -19t70.5 -51q9 -9 18.5 -8.5t15.5 7t7 16.5t-8 20q-21 23 -50.5 42t-62 29.5t-65.5 11t-61.5 -12.5t-49 -42t-28.5 -77q-4 -25 2 -44.5t12.5 -28.5 t7.5 -10q-25 -51 -27.5 -87t10.5 -62t38 -45t54 -35l59 -32q30 -16 52.5 -37t34 -48.5t5.5 -67.5q-6 -34 -24 -54t-42.5 -28t-53.5 -6.5t-55.5 11.5t-49 25t-33.5 32q-7 11 -16.5 11.5t-16.5 -6t-9 -17.5t6 -21q21 -27 53 -46t68 -28t73 -7.5t68 16t52.5 43t27.5 72.5 q4 36 -1 62t-11 37t-7 12zM109 381q1 -1 11 -7l24 -16q15 -10 28 -15q10 -4 27.5 -12t37 -19.5t37.5 -27t28 -35.5t9.5 -44t-17.5 -53l-8 6l-23 17l-36 23q-21 13 -47 26q-15 7 -35 18t-34.5 29t-18 44.5t16.5 65.5z" />
<glyph unicode="&#xa8;" horiz-adv-x="227" d="M74 430q0 15 -9.5 23t-21.5 8t-21.5 -8t-9.5 -23t9.5 -23t21.5 -8t21.5 8t9.5 23zM200 430q0 15 -9.5 23t-21.5 8t-21.5 -8t-9.5 -23t9.5 -23t21.5 -8t21.5 8t9.5 23z" />
<glyph unicode="&#xa9;" horiz-adv-x="462" d="M453 433q12 71 -11.5 118.5t-67.5 71t-100 23.5t-108 -23.5t-92.5 -71t-52.5 -118.5t11.5 -118.5t67.5 -71t100 -23.5t108 23.5t92.5 71t52.5 118.5zM154 300q21 -9 46 -7t48 9.5t42.5 19t30.5 23.5q4 4 3.5 8.5t-3 7.5t-7 3.5t-8.5 -2.5q-17 -15 -36.5 -25.5t-39.5 -16 t-38.5 -5t-33.5 7.5q-20 9 -25 30.5t1.5 47.5t22.5 53.5t38 50.5t48 37.5t53 14.5q9 0 14.5 -3.5t9 -8t6.5 -8t7 -3.5q8 0 9.5 7.5t-4 16t-17 15.5t-29.5 6q-33 -1 -63.5 -19t-55.5 -45.5t-41.5 -60t-21 -63t5.5 -55.5t38 -36zM41 433q11 64 47.5 107t84 64.5t98.5 21.5 t90.5 -21.5t61 -64.5t10.5 -107t-47.5 -107t-84 -64.5t-98.5 -21.5t-90.5 21.5t-61 64.5t-10.5 107z" />
<glyph unicode="&#xaa;" horiz-adv-x="225" d="M42 385q12 -10 28 -11.5t32 2t29 10.5t18 13v-17q0 -6 4 -9t8 -3q5 0 8.5 3t3.5 9q-2 25 1 48.5t8 43.5q4 21 10 38l10 29q2 6 -0.5 9.5t-7 4.5t-9.5 -0.5t-7 -7.5q-6 -16 -11.5 -36.5t-9.5 -38.5l-7 -32l-2 -12q-7 -8 -19 -15t-25.5 -11.5t-26.5 -4t-21 7.5 q-20 16 -20.5 39t14 43t41 32.5t60.5 9.5q6 -1 9 2.5t3 7.5q0 5 -3 9t-9 5q-41 4 -74 -13t-50 -44t-15 -58t30 -53zM22 348q-5 0 -9.5 -4.5t-4.5 -9.5t4 -10t10 -5h145q5 0 9.5 5t4.5 10t-4.5 9.5t-9.5 4.5h-145z" />
<glyph unicode="&#xab;" horiz-adv-x="480" d="M262 317q10 5 11.5 14.5t-2 17.5t-11.5 12.5t-18 -0.5q-46 -23 -88 -49.5t-74 -50.5t-51 -44.5t-19 -31.5t18.5 -33.5t50 -50t73 -56t87.5 -51.5q10 -5 18 -0.5t11.5 12.5t2 17.5t-11.5 14.5q-100 56 -146.5 98t-46.5 49q0 8 48 42t148 90zM446 317q10 5 11.5 14.5 t-2 17.5t-11.5 12.5t-18 -0.5q-46 -23 -88 -49.5t-74 -50.5t-51 -44.5t-19 -31.5t18.5 -33.5t50 -50t73 -56t87.5 -51.5q10 -5 18 -0.5t11.5 12.5t2 17.5t-11.5 14.5q-100 56 -146.5 98t-46.5 49q0 8 48 42t148 90z" />
<glyph unicode="&#xad;" horiz-adv-x="264" d="M24 218q-9 0 -16.5 -8t-7.5 -16t7 -16t17 -8h184q9 0 16.5 8t7.5 16t-7.5 16t-16.5 8h-184z" />
<glyph unicode="&#xae;" horiz-adv-x="462" d="M172 417l13 -11q13 -12 35 -29t51.5 -37t61.5 -36q5 -3 9 -1t6 5.5t1 8t-6 7.5q-32 16 -58 33.5l-44 30.5q-17 14 -27 23l-10 9q1 0 15.5 2t37 8t44.5 16t39 27t19 40q3 33 -21 49.5t-62.5 19.5t-86 -7t-90.5 -31q-14 -7 -9.5 -16.5t18.5 -3.5q49 23 85.5 30t63.5 7 q7 0 21.5 -1t28.5 -6t24 -14.5t7 -26.5q-3 -20 -21 -33t-41 -21t-46.5 -12.5t-38 -5.5t-15.5 -1q0 2 2 13t4.5 32t3.5 42q0 6 -3 9t-7 3.5t-7.5 -2t-3.5 -8.5q-2 -19 -6 -47.5t-9 -59.5t-11 -60.5t-12 -48.5q-3 -11 8 -12.5t14 9.5q6 21 11.5 47t8.5 42t3 18zM451 433 q0 72 -32 120t-80 72t-104 24t-104 -24t-80 -72t-32 -120t32 -120t80 -72t104 -24t104 24t80 72t32 120zM39 433q0 65 29 108.5t72.5 65.5t94.5 22t94.5 -22t72.5 -65.5t29 -108.5t-29 -108.5t-72.5 -65.5t-94.5 -22t-94.5 22t-72.5 65.5t-29 108.5z" />
<glyph unicode="&#xaf;" horiz-adv-x="282" d="M58 454q-9 0 -16.5 -8t-7.5 -16t7 -16t17 -8h184q9 0 16.5 8t7.5 16t-7.5 16t-16.5 8h-184z" />
<glyph unicode="&#xb0;" horiz-adv-x="354" d="M201 484q0 28 -12.5 46.5t-31 28t-40.5 9.5t-40.5 -9.5t-31 -28t-12.5 -46.5t12.5 -46.5t31 -28t40.5 -9.5t40.5 9.5t31 28t12.5 46.5zM65 484q0 26 16 39t35 13q20 0 36.5 -13t16.5 -39t-16.5 -39t-36.5 -13q-19 0 -35 13t-16 39z" />
<glyph unicode="&#xb2;" horiz-adv-x="355" d="M87 602q-4 -5 -4 -10t3 -8t7.5 -3.5t10.5 4.5q22 20 38.5 29t28.5 11.5t20.5 0t14.5 -5.5q17 -10 16.5 -25.5t-12.5 -35.5t-32 -44l-41 -51q-21 -27 -39 -56.5t-27 -60.5q-2 -8 3.5 -13t14.5 -3q27 9 49 10.5t41 -1t35 -7.5l30 -9q6 -2 10.5 0.5t5.5 6.5t-0.5 8.5 t-7.5 5.5q-14 4 -28.5 9t-32.5 8t-40 4q-21 0 -48 -5q1 1 5.5 10.5t12.5 24.5t17 28q17 26 43.5 57t45 61t20.5 56.5t-30 43.5q-18 9 -36.5 8.5t-36 -7.5t-32.5 -18.5t-25 -22.5z" />
<glyph unicode="&#xb4;" horiz-adv-x="148" d="M22 406q7 -7 17 -7t17 7l75 75q7 7 7 17t-7 17t-17 7t-17 -7l-75 -75q-7 -7 -7 -17t7 -17z" />
<glyph unicode="&#xb6;" horiz-adv-x="430" d="M311 602h64l-98 -588q-2 -11 3.5 -16.5t14.5 -7.5q10 -2 19 1t11 14l101 606q2 11 1 19.5t-8 13.5t-14.5 5.5t-19.5 0.5h-189q-35 0 -66 -11.5t-54.5 -32.5t-38 -51.5t-16.5 -68.5q-3 -57 16 -94t46.5 -57t57 -29t48.5 -10.5t21 -1.5l-47 -280q-2 -11 3.5 -16.5 t14.5 -7.5q10 -2 19 1t11 14zM217 342q-1 0 -17 1.5t-40 8.5t-46 22t-36 42.5t-9 69.5q6 46 24 70t39 34.5t39.5 11t24.5 0.5h65z" />
<glyph unicode="&#xb7;" horiz-adv-x="90" d="M0 387q0 -17 12.5 -29.5t29.5 -12.5t29.5 12.5t12.5 29.5t-12.5 29.5t-29.5 12.5t-29.5 -12.5t-12.5 -29.5z" />
<glyph unicode="&#xb8;" horiz-adv-x="395" d="M202 -1l-32 1q0 -12 3 -22.5t7 -19.5t6.5 -17t2.5 -14q0 -11 -6.5 -17.5t-27.5 -17.5q-7 -3 -9 -9.5t0 -12t7.5 -8.5t13.5 0q21 9 37.5 24.5t16.5 40.5q0 10 -3 18.5t-6.5 16t-6.5 16.5t-3 21z" />
<glyph unicode="&#xb9;" horiz-adv-x="261" d="M125 326l52 312q1 7 -1 8t-4 4q-2 0 -5.5 0.5t-6.5 -1.5l-49 -29q-5 -4 -6 -10t1 -9q2 -2 7 -4t9 0l26 15l-47 -282q-1 -6 2 -10t8 -5q4 -1 8 1.5t6 9.5z" />
<glyph unicode="&#xba;" horiz-adv-x="225" d="M129 558q-34 0 -58 -13.5t-37 -34.5t-15.5 -44.5t5 -44.5t26 -34.5t46.5 -13.5q34 0 57.5 13.5t36.5 34.5t16 44.5t-4.5 44.5t-25.5 34.5t-47 13.5zM100 397q-35 0 -48.5 21.5t-9.5 47t25.5 47t56.5 21.5t48.5 -21.5t9 -47t-25.5 -47t-56 -21.5zM22 348q-5 0 -9.5 -4.5 t-4.5 -9.5t4 -10t10 -5h145q5 0 9.5 5t4.5 10t-4.5 9.5t-9.5 4.5h-145z" />
<glyph unicode="&#xbb;" horiz-adv-x="480" d="M242 361q-10 5 -18 0.5t-11.5 -12.5t-2 -17.5t11.5 -14.5q100 -56 148 -90t48 -42q0 -7 -46.5 -49t-146.5 -98q-10 -5 -11.5 -14.5t2 -17.5t11.5 -12.5t18 0.5q46 23 87.5 51.5t73 56t50 50t18.5 33.5t-19 31.5t-51 44.5t-74 50.5t-88 49.5zM58 361q-10 5 -18 0.5 t-11.5 -12.5t-2 -17.5t11.5 -14.5q100 -56 148 -90t48 -42q0 -7 -46.5 -49t-146.5 -98q-10 -5 -11.5 -14.5t2 -17.5t11.5 -12.5t18 0.5q46 23 87.5 51.5t73 56t50 50t18.5 33.5t-19 31.5t-51 44.5t-74 50.5t-88 49.5z" />
<glyph unicode="&#xbc;" horiz-adv-x="367" d="M192 362l52 312q1 7 -1 8t-4 4q-2 0 -5.5 0.5t-6.5 -1.5l-49 -29q-5 -4 -6 -10t1 -9q2 -2 7 -4t9 0l26 15l-47 -282q-1 -6 2 -10t8 -5q4 -1 8 1.5t6 9.5zM54 310q-5 0 -8.5 -3.5t-3.5 -8.5q0 -4 3.5 -8t8.5 -4h247q5 0 8.5 4t3.5 8q0 5 -3.5 8.5t-8.5 3.5h-247zM201 -74 l26 153l30 6q5 1 8 6t2 9q-2 11 -13 9l-23 -4l23 139q1 4 -2 7.5t-7 4.5q-13 2 -15 -11l-24 -145l-21 -5q-21 -5 -45 -9.5t-44 -3.5q-19 0 -16 8l13 35q7 15 13 31l14 34l17 40q3 6 1 10.5t-6.5 6t-9 -0.5t-7.5 -8l-31 -72q-16 -34 -30 -81q-5 -16 8.5 -22t35.5 -5.5 t46.5 4.5t40.5 8t17 4l-25 -147q-2 -11 2.5 -12.5t9.5 -1.5t7.5 -1.5t4.5 14.5z" />
<glyph unicode="&#xbd;" horiz-adv-x="355" d="M192 362l52 312q1 7 -1 8t-4 4q-2 0 -5.5 0.5t-6.5 -1.5l-49 -29q-5 -4 -6 -10t1 -9q2 -2 7 -4t9 0l26 15l-47 -282q-1 -6 2 -10t8 -5q4 -1 8 1.5t6 9.5zM87 202q-4 -5 -4 -10t3 -8t7.5 -3.5t10.5 4.5q22 20 38.5 29t28.5 11.5t20.5 0t14.5 -5.5q17 -10 16.5 -25.5 t-12.5 -35.5t-32 -44l-41 -51q-21 -27 -39 -56.5t-27 -60.5q-2 -8 3.5 -13t14.5 -3q27 9 49 10.5t41 -1t35 -7.5l30 -9q6 -2 10.5 0.5t5.5 6.5t-0.5 8.5t-7.5 5.5q-14 4 -28.5 9t-32.5 8t-40 4q-21 0 -48 -5q1 1 5.5 10.5t12.5 24.5t17 28q17 26 43.5 57t45 61t20.5 56.5 t-30 43.5q-18 9 -36.5 8.5t-36 -7.5t-32.5 -18.5t-25 -22.5zM54 310q-5 0 -8.5 -3.5t-3.5 -8.5q0 -4 3.5 -8t8.5 -4h247q5 0 8.5 4t3.5 8q0 5 -3.5 8.5t-8.5 3.5h-247z" />
<glyph unicode="&#xbe;" horiz-adv-x="367" d="M54 316q-5 0 -8.5 -3.5t-3.5 -8.5q0 -4 3.5 -8t8.5 -4h247q5 0 8.5 4t3.5 8q0 5 -3.5 8.5t-8.5 3.5h-247zM201 -68l26 153l30 6q5 1 8 6t2 9q-2 11 -13 9l-23 -4l23 139q1 4 -2 7.5t-7 4.5q-13 2 -15 -11l-24 -145l-21 -5q-21 -5 -45 -9.5t-44 -3.5q-19 0 -16 8l13 35 q7 15 13 31l14 34l17 40q3 6 1 10.5t-6.5 6t-9 -0.5t-7.5 -8l-31 -72q-16 -34 -30 -81q-5 -16 8.5 -22t35.5 -5.5t46.5 4.5t40.5 8t17 4l-25 -147q-2 -11 2.5 -12.5t9.5 -1.5t7.5 -1.5t4.5 14.5zM120 623q13 7 32 13t37 8.5t31.5 1.5t15.5 -7t-7.5 -16t-24 -21t-30.5 -21 t-26 -17q-11 -8 -14 -12.5t-1.5 -7.5t6.5 -4t11 0q11 2 29 0t35 -8.5t29.5 -19.5t12.5 -34q0 -22 -12 -41t-32 -34t-45.5 -25.5t-52.5 -15.5q-8 -1 -11.5 -5t-3.5 -9q0 -4 4.5 -7t14.5 -3q12 0 39 8.5t54.5 25.5t48 43.5t20.5 62.5t-25 58.5t-68 24.5l13 9q14 8 29 20.5 t25 28.5t4 31t-26 18.5t-43 0.5t-46 -10.5t-35 -14.5q-5 -3 -5.5 -8t1.5 -8.5t6.5 -5.5t9.5 1z" />
<glyph unicode="&#xbf;" horiz-adv-x="351" d="M341 85q4 10 -1 18.5t-13 12t-17.5 0.5t-14.5 -16q-11 -26 -26.5 -42t-33.5 -26t-37 -13.5t-37 -3.5q-21 0 -40 13.5t-30.5 36t-13 50.5t11.5 58q19 44 43 78l47 67q23 33 43.5 69.5t32.5 84.5q3 12 -2.5 20t-14.5 10t-18 -2t-12 -17q-12 -47 -32.5 -81t-43.5 -66 l-46 -65q-24 -34 -42 -79q-18 -46 -14.5 -87t21.5 -71.5t47.5 -48.5t62.5 -18q69 0 115.5 33.5t64.5 84.5zM216 589q0 -15 9.5 -23t21.5 -8t21.5 8t9.5 23t-9.5 23t-21.5 8t-21.5 -8t-9.5 -23z" />
<glyph unicode="&#xc0;" horiz-adv-x="640" d="M471 668q-58 -14 -124 -70.5t-130 -145.5t-120.5 -203.5t-93.5 -243.5q-3 -12 3 -20t15.5 -10.5t19 1.5t13.5 16q15 48 28 84.5t24.5 65t21.5 50.5l19 41l24 3l320 40l23 3l1 -24q1 -24 1.5 -63.5t-1 -89.5t-7.5 -102q-1 -13 6.5 -19t16.5 -6q10 0 19 6.5t10 18.5 q7 58 8.5 132t-1.5 149.5t-11 147.5t-20 126.5t-28.5 86t-36.5 26.5zM460 613q3 1 10.5 -21.5t16 -61.5t15.5 -90.5t10 -108.5q0 -1 -9 -1.5t-15 -1.5l-288 -36l-24 -3q25 46 57 95t69 93t77 80t81 56zM442 698q7 -7 17 -7t17 7t7 17t-7 17l-75 75q-7 7 -17 7t-17 -7t-7 -17 t7 -17z" />
<glyph unicode="&#xc1;" horiz-adv-x="640" d="M471 668q-58 -14 -124 -70.5t-130 -145.5t-120.5 -203.5t-93.5 -243.5q-3 -12 3 -20t15.5 -10.5t19 1.5t13.5 16q15 48 28 84.5t24.5 65t21.5 50.5l19 41l24 3l320 40l23 3l1 -24q1 -24 1.5 -63.5t-1 -89.5t-7.5 -102q-1 -13 6.5 -19t16.5 -6q10 0 19 6.5t10 18.5 q7 58 8.5 132t-1.5 149.5t-11 147.5t-20 126.5t-28.5 86t-36.5 26.5zM460 613q3 1 10.5 -21.5t16 -61.5t15.5 -90.5t10 -108.5q0 -1 -9 -1.5t-15 -1.5l-288 -36l-24 -3q25 46 57 95t69 93t77 80t81 56zM366 680q7 -7 17 -7t17 7l75 75q7 7 7 17t-7 17t-17 7t-17 -7l-75 -75 q-7 -7 -7 -17t7 -17z" />
<glyph unicode="&#xc2;" horiz-adv-x="640" d="M471 668q-58 -14 -124 -70.5t-130 -145.5t-120.5 -203.5t-93.5 -243.5q-3 -12 3 -20t15.5 -10.5t19 1.5t13.5 16q15 48 28 84.5t24.5 65t21.5 50.5l19 41l24 3l320 40l23 3l1 -24q1 -24 1.5 -63.5t-1 -89.5t-7.5 -102q-1 -13 6.5 -19t16.5 -6q10 0 19 6.5t10 18.5 q7 58 8.5 132t-1.5 149.5t-11 147.5t-20 126.5t-28.5 86t-36.5 26.5zM460 613q3 1 10.5 -21.5t16 -61.5t15.5 -90.5t10 -108.5q0 -1 -9 -1.5t-15 -1.5l-288 -36l-24 -3q25 46 57 95t69 93t77 80t81 56zM370 696q-6 -6 -6 -15t6 -15t15 -6t15 6l75 75l75 -75q7 -7 15.5 -6.5 t14.5 6.5t6 15t-6 15l-105 105z" />
<glyph unicode="&#xc3;" horiz-adv-x="640" d="M471 668q-58 -14 -124 -70.5t-130 -145.5t-120.5 -203.5t-93.5 -243.5q-3 -12 3 -20t15.5 -10.5t19 1.5t13.5 16q15 48 28 84.5t24.5 65t21.5 50.5l19 41l24 3l320 40l23 3l1 -24q1 -24 1.5 -63.5t-1 -89.5t-7.5 -102q-1 -13 6.5 -19t16.5 -6q10 0 19 6.5t10 18.5 q7 58 8.5 132t-1.5 149.5t-11 147.5t-20 126.5t-28.5 86t-36.5 26.5zM460 613q3 1 10.5 -21.5t16 -61.5t15.5 -90.5t10 -108.5q0 -1 -9 -1.5t-15 -1.5l-288 -36l-24 -3q25 46 57 95t69 93t77 80t81 56zM347 723q-6 -8 -4.5 -16t7 -13.5t13 -6.5t14.5 6q12 12 22 24t27 12 q10 -1 20 -7l22 -14q12 -8 25.5 -14t29.5 -6t28 5t22 13t17 16l12 14q6 7 4 15.5t-7 14t-13 6.5t-14 -6q-3 -3 -8 -9t-12 -12t-14.5 -10.5t-14.5 -4.5q-11 0 -21 6l-22 14q-12 8 -25 14.5t-29 6.5t-29 -6t-23.5 -14t-17 -16t-9.5 -12z" />
<glyph unicode="&#xc4;" horiz-adv-x="640" d="M471 668q-58 -14 -124 -70.5t-130 -145.5t-120.5 -203.5t-93.5 -243.5q-3 -12 3 -20t15.5 -10.5t19 1.5t13.5 16q15 48 28 84.5t24.5 65t21.5 50.5l19 41l24 3l320 40l23 3l1 -24q1 -24 1.5 -63.5t-1 -89.5t-7.5 -102q-1 -13 6.5 -19t16.5 -6q10 0 19 6.5t10 18.5 q7 58 8.5 132t-1.5 149.5t-11 147.5t-20 126.5t-28.5 86t-36.5 26.5zM460 613q3 1 10.5 -21.5t16 -61.5t15.5 -90.5t10 -108.5q0 -1 -9 -1.5t-15 -1.5l-288 -36l-24 -3q25 46 57 95t69 93t77 80t81 56zM434 712q0 15 -9.5 23t-21.5 8t-21.5 -8t-9.5 -23t9.5 -23t21.5 -8 t21.5 8t9.5 23zM560 712q0 15 -9.5 23t-21.5 8t-21.5 -8t-9.5 -23t9.5 -23t21.5 -8t21.5 8t9.5 23z" />
<glyph unicode="&#xc5;" horiz-adv-x="640" d="M471 668q-58 -14 -124 -70.5t-130 -145.5t-120.5 -203.5t-93.5 -243.5q-3 -12 3 -20t15.5 -10.5t19 1.5t13.5 16q15 48 28 84.5t24.5 65t21.5 50.5l19 41l24 3l320 40l23 3l1 -24q1 -24 1.5 -63.5t-1 -89.5t-7.5 -102q-1 -13 6.5 -19t16.5 -6q10 0 19 6.5t10 18.5 q7 58 8.5 132t-1.5 149.5t-11 147.5t-20 126.5t-28.5 86t-36.5 26.5zM460 613q3 1 10.5 -21.5t16 -61.5t15.5 -90.5t10 -108.5q0 -1 -9 -1.5t-15 -1.5l-288 -36l-24 -3q25 46 57 95t69 93t77 80t81 56zM554 758q0 38 -24 57t-53 19q-28 0 -52 -19t-24 -57t24 -57.5t52 -19.5 q29 0 53 19.5t24 57.5zM431 758q0 23 14.5 34.5t31.5 11.5q18 0 32.5 -11.5t14.5 -34.5t-14.5 -35t-32.5 -12q-17 0 -31.5 12t-14.5 35z" />
<glyph unicode="&#xc6;" horiz-adv-x="1054" d="M581 -3q38 -16 88 -15t104.5 10.5t111.5 25.5l109 30q12 3 17 13t3 19.5t-10 15.5t-21 3l-125 -33q-60 -16 -110 -25t-86.5 -8t-52.5 17q-12 12 -18 40t-7.5 61t-1 65t2 51t1.5 21l124 20q62 10 119 25q12 3 15.5 14t0.5 21t-11 16t-18 0l-18 -4l-49 -11t-69.5 -14 t-78.5 -12l6 22q6 22 16 54.5t23 68t26 62.5q5 10 38.5 19t82.5 16t107.5 11.5t113.5 4.5q10 0 15 8t4.5 18t-6 18t-16.5 8q-63 -1 -127.5 -5.5t-118.5 -13t-91 -21t-44 -28.5q-17 -37 -30 -71.5t-22 -61.5q-10 -28 -14 -44l-4 -16q0 2 -2 30.5t-8 72t-16 84t-25.5 67.5 t-37.5 22q-58 -14 -124 -71t-130 -145.5t-120.5 -203t-93.5 -243.5q-3 -12 3 -20t15.5 -10.5t19 1.5t13.5 16q15 48 28 84.5t24.5 65t21.5 50.5l19 41l24 3l320 40l24 3l-1 -19q0 -18 1 -47t4 -63t10.5 -65.5t20 -55.5t31.5 -32zM464 612q1 0 6.5 -11t12.5 -42.5t15 -86 t14 -141.5q0 -1 -9 -1.5t-15 -1.5l-288 -36l-24 -3q25 46 59.5 97.5t73.5 97t79.5 80t75.5 48.5z" />
<glyph unicode="&#xc7;" horiz-adv-x="628" d="M149 -8q31 -12 55 -14l24 -2q0 -12 3 -22.5t7 -19.5t6.5 -17t2.5 -14q0 -11 -6.5 -17.5t-27.5 -17.5q-7 -3 -7.5 -9.5t2.5 -12t10 -8.5t15 0q21 9 37.5 24.5t16.5 40.5q0 10 -3 18.5t-6.5 16.5t-6.5 17t-3 21l26 3q26 3 65.5 15.5t88.5 37t95 68.5q10 9 9 19.5t-7.5 17.5 t-16.5 9t-19 -6q-40 -36 -86.5 -61.5t-94 -38t-91.5 -12t-78 17.5q-35 17 -50 49.5t-13 74.5t17.5 90t42.5 95.5t64 91.5t79.5 77.5t89.5 54t95 20.5q22 0 35 -8.5t21 -18.5l16 -20q6 -8 16 -8q19 1 22 18.5t-9 38t-39.5 36.5t-69.5 14q-58 -2 -114 -27.5t-105.5 -66 t-91 -93t-69.5 -108.5t-42.5 -112.5t-10 -106t30 -87.5t75.5 -58z" />
<glyph unicode="&#xc8;" horiz-adv-x="600" d="M61 25q16 -23 47.5 -33t73 -10.5t89 6t95.5 16.5q48 11 92 23l79 21q12 3 17 13t3 19.5t-10 15.5t-21 3l-130 -33q-66 -16 -122.5 -25t-98.5 -7.5t-58 16.5q-12 12 -13.5 44t3.5 70.5t13 76t13.5 60.5t6.5 25q38 1 70 4t60.5 6.5t55 8t54.5 10.5q13 3 18 12.5t3.5 19 t-9.5 16.5t-20 4l-22 -5q-22 -4 -54.5 -9t-70.5 -9.5t-71 -4.5l4 17q4 16 13 41.5l20 55.5t24 57q5 10 38.5 19t82.5 16t107.5 11.5t113.5 4.5q10 0 15 8t4.5 18t-6 18t-16.5 8q-63 -1 -127.5 -5.5t-118 -13t-90.5 -21t-45 -28.5q-19 -40 -37.5 -93t-34.5 -110.5t-28 -114.5 t-18 -106t-5 -85t11 -51zM336 678q7 -7 17 -7t17 7t7 17t-7 17l-75 75q-7 7 -17 7t-17 -7t-7 -17t7 -17z" />
<glyph unicode="&#xc9;" horiz-adv-x="600" d="M61 25q16 -23 47.5 -33t73 -10.5t89 6t95.5 16.5q48 11 92 23l79 21q12 3 17 13t3 19.5t-10 15.5t-21 3l-130 -33q-66 -16 -122.5 -25t-98.5 -7.5t-58 16.5q-12 12 -13.5 44t3.5 70.5t13 76t13.5 60.5t6.5 25q38 1 70 4t60.5 6.5t55 8t54.5 10.5q13 3 18 12.5t3.5 19 t-9.5 16.5t-20 4l-22 -5q-22 -4 -54.5 -9t-70.5 -9.5t-71 -4.5l4 17q4 16 13 41.5l20 55.5t24 57q5 10 38.5 19t82.5 16t107.5 11.5t113.5 4.5q10 0 15 8t4.5 18t-6 18t-16.5 8q-63 -1 -127.5 -5.5t-118 -13t-90.5 -21t-45 -28.5q-19 -40 -37.5 -93t-34.5 -110.5t-28 -114.5 t-18 -106t-5 -85t11 -51zM292 662q7 -7 17 -7t17 7l75 75q7 7 7 17t-7 17t-17 7t-17 -7l-75 -75q-7 -7 -7 -17t7 -17z" />
<glyph unicode="&#xca;" horiz-adv-x="600" d="M61 25q16 -23 47.5 -33t73 -10.5t89 6t95.5 16.5q48 11 92 23l79 21q12 3 17 13t3 19.5t-10 15.5t-21 3l-130 -33q-66 -16 -122.5 -25t-98.5 -7.5t-58 16.5q-12 12 -13.5 44t3.5 70.5t13 76t13.5 60.5t6.5 25q38 1 70 4t60.5 6.5t55 8t54.5 10.5q13 3 18 12.5t3.5 19 t-9.5 16.5t-20 4l-22 -5q-22 -4 -54.5 -9t-70.5 -9.5t-71 -4.5l4 17q4 16 13 41.5l20 55.5t24 57q5 10 38.5 19t82.5 16t107.5 11.5t113.5 4.5q10 0 15 8t4.5 18t-6 18t-16.5 8q-63 -1 -127.5 -5.5t-118 -13t-90.5 -21t-45 -28.5q-19 -40 -37.5 -93t-34.5 -110.5t-28 -114.5 t-18 -106t-5 -85t11 -51zM236 702q-6 -6 -6 -15t6 -15t15 -6t15 6l75 75l75 -75q7 -7 15.5 -6.5t14.5 6.5t6 15t-6 15l-105 105z" />
<glyph unicode="&#xcb;" horiz-adv-x="600" d="M61 25q16 -23 47.5 -33t73 -10.5t89 6t95.5 16.5q48 11 92 23l79 21q12 3 17 13t3 19.5t-10 15.5t-21 3l-130 -33q-66 -16 -122.5 -25t-98.5 -7.5t-58 16.5q-12 12 -13.5 44t3.5 70.5t13 76t13.5 60.5t6.5 25q38 1 70 4t60.5 6.5t55 8t54.5 10.5q13 3 18 12.5t3.5 19 t-9.5 16.5t-20 4l-22 -5q-22 -4 -54.5 -9t-70.5 -9.5t-71 -4.5l4 17q4 16 13 41.5l20 55.5t24 57q5 10 38.5 19t82.5 16t107.5 11.5t113.5 4.5q10 0 15 8t4.5 18t-6 18t-16.5 8q-63 -1 -127.5 -5.5t-118 -13t-90.5 -21t-45 -28.5q-19 -40 -37.5 -93t-34.5 -110.5t-28 -114.5 t-18 -106t-5 -85t11 -51zM298 710q0 15 -9.5 23t-21.5 8t-21.5 -8t-9.5 -23t9.5 -23t21.5 -8t21.5 8t9.5 23zM424 710q0 15 -9.5 23t-21.5 8t-21.5 -8t-9.5 -23t9.5 -23t21.5 -8t21.5 8t9.5 23z" />
<glyph unicode="&#xcc;" horiz-adv-x="268" d="M102 12l29 127q15 66 29.5 140.5t27.5 160t23 186.5q1 12 -6.5 19.5t-17.5 8t-19 -6t-10 -21.5q-11 -101 -23.5 -184.5t-26.5 -155.5q-14 -74 -28 -138l-29 -125q-3 -13 3.5 -21.5t16 -10.5t19 3t12.5 18zM144 684q7 -7 17 -7t17 7t7 17t-7 17l-75 75q-7 7 -17 7t-17 -7 t-7 -17t7 -17z" />
<glyph unicode="&#xcd;" horiz-adv-x="268" d="M102 12l29 127q15 66 29.5 140.5t27.5 160t23 186.5q1 12 -6.5 19.5t-17.5 8t-19 -6t-10 -21.5q-11 -101 -23.5 -184.5t-26.5 -155.5q-14 -74 -28 -138l-29 -125q-3 -13 3.5 -21.5t16 -10.5t19 3t12.5 18zM180 676q7 -7 17 -7t17 7l75 75q7 7 7 17t-7 17t-17 7t-17 -7 l-75 -75q-7 -7 -7 -17t7 -17z" />
<glyph unicode="&#xce;" horiz-adv-x="268" d="M102 12l29 127q15 66 29.5 140.5t27.5 160t23 186.5q1 12 -6.5 19.5t-17.5 8t-19 -6t-10 -21.5q-11 -101 -23.5 -184.5t-26.5 -155.5q-14 -74 -28 -138l-29 -125q-3 -13 3.5 -21.5t16 -10.5t19 3t12.5 18zM88 678q-6 -6 -6 -15t6 -15t15 -6t15 6l75 75l75 -75 q7 -7 15.5 -6.5t14.5 6.5t6 15t-6 15l-105 105z" />
<glyph unicode="&#xcf;" horiz-adv-x="268" d="M102 12l29 127q15 66 29.5 140.5t27.5 160t23 186.5q1 12 -6.5 19.5t-17.5 8t-19 -6t-10 -21.5q-11 -101 -23.5 -184.5t-26.5 -155.5q-14 -74 -28 -138l-29 -125q-3 -13 3.5 -21.5t16 -10.5t19 3t12.5 18zM150 720q0 15 -9.5 23t-21.5 8t-21.5 -8t-9.5 -23t9.5 -23 t21.5 -8t21.5 8t9.5 23zM276 720q0 15 -9.5 23t-21.5 8t-21.5 -8t-9.5 -23t9.5 -23t21.5 -8t21.5 8t9.5 23z" />
<glyph unicode="&#xd0;" horiz-adv-x="686" d="M178 398h-71q-9 0 -16.5 -8t-7.5 -16t7 -16t17 -8h63q-12 -66 -28 -138l-38 -157q-2 0 -12 -1.5t-28.5 -3t-35.5 -2.5q-13 -1 -18.5 -9t-4.5 -18t8 -17.5t19 -7.5q70 4 148.5 16t154 35t142 58.5t113 87t66.5 120t3 157.5q-11 56 -42.5 93t-78 58t-104.5 27t-121.5 1 t-129.5 -20.5t-128 -37.5q-12 -4 -15.5 -14t-0.5 -19.5t11.5 -15t20.5 -1.5q16 6 59 19t99 23.5t118 15t116.5 -7.5t94.5 -43.5t51 -93.5q13 -73 -5.5 -130t-56.5 -98t-89 -70t-102.5 -47t-96.5 -28.5t-72 -14t-28 -3.5l33 140q16 72 30 147h69q9 0 16.5 8t7.5 16t-7.5 16 t-16.5 8h-61q5 37 9 73.5t6 73.5q0 13 -8 19t-17.5 5.5t-18 -7.5t-8.5 -20q-3 -71 -15 -144z" />
<glyph unicode="&#xd1;" horiz-adv-x="656" d="M32 14q-2 -14 5.5 -21.5t17.5 -8.5t18.5 5t10.5 19q8 64 19 130q11 68 23 130l22 118q11 56 21.5 97t18 65t12.5 25q4 0 17.5 -20.5t31.5 -54t37.5 -77t35.5 -88.5l42 -121q20 -59 37.5 -105.5t35 -76t35.5 -31.5q13 -1 27.5 26t28.5 74t28 110t26.5 133t23.5 143t19 140 q1 13 -6.5 19.5t-17 7t-18.5 -5.5t-10 -18q-12 -100 -28 -196.5t-32 -172t-28.5 -122t-17.5 -46.5q-3 0 -11 24l-22 63l-30 90l-38.5 103t-43 103.5t-46 90.5t-47.5 64t-47 24q-10 0 -23 -29.5t-27.5 -79t-29 -115t-27.5 -136.5t-24.5 -143t-18.5 -136zM283 683 q-6 -8 -4.5 -16t7 -13.5t13 -6.5t14.5 6q12 12 22 24t27 12q10 -1 20 -7l22 -14q12 -8 25.5 -14t29.5 -6t28 5t22 13t17 16l12 14q6 7 4 15.5t-7 14t-13 6.5t-14 -6q-3 -3 -8 -9t-12 -12t-14.5 -10.5t-14.5 -4.5q-11 0 -21 6l-22 14q-12 8 -25 14.5t-29 6.5t-29 -6 t-23.5 -14t-17 -16t-9.5 -12z" />
<glyph unicode="&#xd2;" horiz-adv-x="610" d="M226 -18q63 -18 117.5 -2.5t98 54t75 95t48.5 120t18 129t-17 122t-55.5 99t-96.5 59.5q-63 18 -118.5 2.5t-100 -53.5t-77 -94.5t-50.5 -119.5t-19 -128.5t17.5 -122t57.5 -99.5t102 -61zM399 608q47 -14 76 -49t42.5 -82.5t12 -103t-15.5 -110t-39.5 -103t-61 -81.5 t-79.5 -47t-94 1t-81 51t-45.5 83.5t-12.5 103t17 109t41.5 101.5t63 81t81.5 46.5t95 -0.5zM362 702q7 -7 17 -7t17 7t7 17t-7 17l-75 75q-7 7 -17 7t-17 -7t-7 -17t7 -17z" />
<glyph unicode="&#xd3;" horiz-adv-x="610" d="M226 -18q63 -18 117.5 -2.5t98 54t75 95t48.5 120t18 129t-17 122t-55.5 99t-96.5 59.5q-63 18 -118.5 2.5t-100 -53.5t-77 -94.5t-50.5 -119.5t-19 -128.5t17.5 -122t57.5 -99.5t102 -61zM399 608q47 -14 76 -49t42.5 -82.5t12 -103t-15.5 -110t-39.5 -103t-61 -81.5 t-79.5 -47t-94 1t-81 51t-45.5 83.5t-12.5 103t17 109t41.5 101.5t63 81t81.5 46.5t95 -0.5zM282 684q7 -7 17 -7t17 7l75 75q7 7 7 17t-7 17t-17 7t-17 -7l-75 -75q-7 -7 -7 -17t7 -17z" />
<glyph unicode="&#xd4;" horiz-adv-x="610" d="M226 -18q63 -18 117.5 -2.5t98 54t75 95t48.5 120t18 129t-17 122t-55.5 99t-96.5 59.5q-63 18 -118.5 2.5t-100 -53.5t-77 -94.5t-50.5 -119.5t-19 -128.5t17.5 -122t57.5 -99.5t102 -61zM399 608q47 -14 76 -49t42.5 -82.5t12 -103t-15.5 -110t-39.5 -103t-61 -81.5 t-79.5 -47t-94 1t-81 51t-45.5 83.5t-12.5 103t17 109t41.5 101.5t63 81t81.5 46.5t95 -0.5zM252 712q-6 -6 -6 -15t6 -15t15 -6t15 6l75 75l75 -75q7 -7 15.5 -6.5t14.5 6.5t6 15t-6 15l-105 105z" />
<glyph unicode="&#xd5;" horiz-adv-x="610" d="M226 -18q63 -18 117.5 -2.5t98 54t75 95t48.5 120t18 129t-17 122t-55.5 99t-96.5 59.5q-63 18 -118.5 2.5t-100 -53.5t-77 -94.5t-50.5 -119.5t-19 -128.5t17.5 -122t57.5 -99.5t102 -61zM399 608q47 -14 76 -49t42.5 -82.5t12 -103t-15.5 -110t-39.5 -103t-61 -81.5 t-79.5 -47t-94 1t-81 51t-45.5 83.5t-12.5 103t17 109t41.5 101.5t63 81t81.5 46.5t95 -0.5zM213 727q-6 -8 -4.5 -16t7 -13.5t13 -6.5t14.5 6q12 12 22 24t27 12q10 -1 20 -7l22 -14q12 -8 25.5 -14t29.5 -6t28 5t22 13t17 16l12 14q6 7 4 15.5t-7 14t-13 6.5t-14 -6 q-3 -3 -8 -9t-12 -12t-14.5 -10.5t-14.5 -4.5q-11 0 -21 6l-22 14q-12 8 -25 14.5t-29 6.5t-29 -6t-23.5 -14t-17 -16t-9.5 -12z" />
<glyph unicode="&#xd6;" horiz-adv-x="610" d="M226 -18q63 -18 117.5 -2.5t98 54t75 95t48.5 120t18 129t-17 122t-55.5 99t-96.5 59.5q-63 18 -118.5 2.5t-100 -53.5t-77 -94.5t-50.5 -119.5t-19 -128.5t17.5 -122t57.5 -99.5t102 -61zM399 608q47 -14 76 -49t42.5 -82.5t12 -103t-15.5 -110t-39.5 -103t-61 -81.5 t-79.5 -47t-94 1t-81 51t-45.5 83.5t-12.5 103t17 109t41.5 101.5t63 81t81.5 46.5t95 -0.5zM336 728q0 15 -9.5 23t-21.5 8t-21.5 -8t-9.5 -23t9.5 -23t21.5 -8t21.5 8t9.5 23zM462 728q0 15 -9.5 23t-21.5 8t-21.5 -8t-9.5 -23t9.5 -23t21.5 -8t21.5 8t9.5 23z" />
<glyph unicode="&#xd7;" horiz-adv-x="312" d="M190 418l-58 -58l-58 58q-8 8 -18.5 6.5t-15.5 -6.5t-6.5 -15.5t6.5 -18.5l58 -58l-58 -58q-8 -8 -6.5 -18.5t6.5 -15.5t15.5 -6.5t18.5 6.5l58 58l58 -58q8 -8 18.5 -6.5t15.5 6.5t6.5 15.5t-6.5 18.5l-58 58l58 58q8 8 6.5 18.5t-6.5 15.5t-15.5 6.5t-18.5 -6.5z" />
<glyph unicode="&#xd8;" horiz-adv-x="610" d="M492 615l14 28q5 11 2.5 21.5t-10.5 14.5t-19 0.5t-17 -16.5l-10 -20q-2 1 -14 6.5t-37 12t-53 6.5q-51 -1 -95 -24t-79 -61t-61 -87.5t-41.5 -102t-20 -105.5t3.5 -98q7 -38 21.5 -69t29.5 -53q14 -20 25 -32l11 -12l-10 -21q-3 -8 -1 -18.5t10 -14.5t19.5 0t15.5 12 l9 18l11 -6q10 -6 30 -12q68 -19 127.5 2.5t105.5 68.5t77 113t43 137.5t1.5 141.5t-46.5 125q-5 8 -15.5 19t-18 18t-8.5 8zM208 47l260 520l6 -5q4 -4 10.5 -12.5t9.5 -13.5q30 -50 37 -111t-4 -122.5t-38 -117t-65 -95t-85.5 -56.5t-98.5 -1q-14 4 -23 9zM346 616 q25 0 44.5 -5t28.5 -9.5t10 -5.5l-260 -519q-2 1 -13 13t-26.5 40.5t-22.5 69.5q-7 42 -3 89t17 93t35 88t51 74t64 51.5t75 20.5z" />
<glyph unicode="&#xd9;" horiz-adv-x="586" d="M153 630q-3 -8 -14.5 -43t-25.5 -85t-27 -111t-19.5 -122t-2.5 -116.5t25 -94.5t61.5 -57t107.5 -4q76 16 138 64.5t102.5 128t56 189.5t-0.5 248q-2 13 -10.5 19t-18.5 5t-17.5 -8.5t-5.5 -20.5q16 -124 3.5 -223t-46.5 -171.5t-87.5 -117.5t-120.5 -61q-50 -12 -79 3.5 t-43 49.5t-14.5 82.5t6.5 102t19.5 108t25.5 100.5q13 45 24 79l15 46q4 13 -2 21t-16 9.5t-20 -3t-14 -17.5zM336 662q7 -7 17 -7t17 7t7 17t-7 17l-75 75q-7 7 -17 7t-17 -7t-7 -17t7 -17z" />
<glyph unicode="&#xda;" horiz-adv-x="586" d="M153 630q-3 -8 -14.5 -43t-25.5 -85t-27 -111t-19.5 -122t-2.5 -116.5t25 -94.5t61.5 -57t107.5 -4q76 16 138 64.5t102.5 128t56 189.5t-0.5 248q-2 13 -10.5 19t-18.5 5t-17.5 -8.5t-5.5 -20.5q16 -124 3.5 -223t-46.5 -171.5t-87.5 -117.5t-120.5 -61q-50 -12 -79 3.5 t-43 49.5t-14.5 82.5t6.5 102t19.5 108t25.5 100.5q13 45 24 79l15 46q4 13 -2 21t-16 9.5t-20 -3t-14 -17.5zM300 644q7 -7 17 -7t17 7l75 75q7 7 7 17t-7 17t-17 7t-17 -7l-75 -75q-7 -7 -7 -17t7 -17z" />
<glyph unicode="&#xdb;" horiz-adv-x="586" d="M153 630q-3 -8 -14.5 -43t-25.5 -85t-27 -111t-19.5 -122t-2.5 -116.5t25 -94.5t61.5 -57t107.5 -4q76 16 138 64.5t102.5 128t56 189.5t-0.5 248q-2 13 -10.5 19t-18.5 5t-17.5 -8.5t-5.5 -20.5q16 -124 3.5 -223t-46.5 -171.5t-87.5 -117.5t-120.5 -61q-50 -12 -79 3.5 t-43 49.5t-14.5 82.5t6.5 102t19.5 108t25.5 100.5q13 45 24 79l15 46q4 13 -2 21t-16 9.5t-20 -3t-14 -17.5zM248 676q-6 -6 -6 -15t6 -15t15 -6t15 6l75 75l75 -75q7 -7 15.5 -6.5t14.5 6.5t6 15t-6 15l-105 105z" />
<glyph unicode="&#xdc;" horiz-adv-x="586" d="M153 630q-3 -8 -14.5 -43t-25.5 -85t-27 -111t-19.5 -122t-2.5 -116.5t25 -94.5t61.5 -57t107.5 -4q76 16 138 64.5t102.5 128t56 189.5t-0.5 248q-2 13 -10.5 19t-18.5 5t-17.5 -8.5t-5.5 -20.5q16 -124 3.5 -223t-46.5 -171.5t-87.5 -117.5t-120.5 -61q-50 -12 -79 3.5 t-43 49.5t-14.5 82.5t6.5 102t19.5 108t25.5 100.5q13 45 24 79l15 46q4 13 -2 21t-16 9.5t-20 -3t-14 -17.5zM320 692q0 15 -9.5 23t-21.5 8t-21.5 -8t-9.5 -23t9.5 -23t21.5 -8t21.5 8t9.5 23zM446 692q0 15 -9.5 23t-21.5 8t-21.5 -8t-9.5 -23t9.5 -23t21.5 -8t21.5 8 t9.5 23z" />
<glyph unicode="&#xdd;" horiz-adv-x="642" d="M308 -2q15 66 25 121t16 94t8 61l2 21q27 30 62 64l73 73q38 38 75.5 82t69.5 94q7 11 3 21t-13 15t-19.5 3.5t-16.5 -13.5q-12 -25 -42.5 -61.5t-65.5 -74.5l-69 -72l-56 -55l-22 -22q-32 28 -67.5 63t-69 73t-62 77t-47.5 76q-6 12 -15.5 13t-17.5 -5.5t-11 -17.5 t3 -23q42 -78 110.5 -153t145.5 -147l-2 -22q-2 -22 -8 -61t-15.5 -93.5t-24.5 -119.5q-3 -14 3.5 -22t16 -10t19 3t12.5 18zM322 638q7 -7 17 -7t17 7l75 75q7 7 7 17t-7 17t-17 7t-17 -7l-75 -75q-7 -7 -7 -17t7 -17z" />
<glyph unicode="&#xde;" horiz-adv-x="660" d="M263 515q45 10 83 13.5t71 3.5q11 0 30.5 -1t42.5 -5t46 -11.5t41 -20t27.5 -31.5t5.5 -46q-7 -40 -38.5 -68t-75 -47.5t-92.5 -31t-90.5 -18t-68.5 -8.5l-27 -2l4 25q4 25 11 64l15 87zM216 556q-91 -23 -177 -65q-17 -8 -22 -19.5t-1 -20t15.5 -12t27.5 3.5 q41 19 78 33l70 25l-15 -93l-13 -83l-10 -60l-4 -23h-50q-29 0 -34 -26q-2 -12 5 -19t17 -7h53l-8 -44q-8 -44 -29 -126q-3 -14 3.5 -22t16.5 -9.5t19.5 3.5t12.5 19q19 83 29 131l9 48l32 2q32 2 80.5 8.5t106 21t108 39.5t86 63.5t41.5 92.5q6 57 -25 93.5t-85.5 55 t-128 18.5t-153.5 -15q5 31 8 57l5 44q1 13 -6.5 20.5t-17.5 8.5t-18.5 -5.5t-9.5 -19.5q-2 -20 -6 -51z" />
<glyph unicode="&#xdf;" horiz-adv-x="433" d="M234 384q-11 -5 -15.5 -13t-4.5 -16q0 -7 5.5 -12.5t16.5 -5.5q20 1 41.5 -9.5t39.5 -28t29.5 -39.5t11.5 -43q0 -47 -12.5 -78.5t-32 -51t-43.5 -29.5t-47.5 -14.5t-43 -5.5t-29.5 -2q-12 -1 -17 -9t-4.5 -16.5t7.5 -15.5t19 -7q16 1 40.5 3t52.5 9t56 21t51 39t37 63.5 t14 93.5q0 36 -25.5 77.5t-70.5 75.5l16 16q16 16 29 43.5t16.5 64t-21.5 77.5q-10 15 -31 26.5t-48 18t-56 8t-54 -5.5t-42.5 -20t-20.5 -35l-90 -540q-2 -11 3.5 -17.5t13.5 -8.5q10 -2 19 2.5t11 16.5l90 532q3 17 27 22.5t53 3t54.5 -11t30.5 -19.5q14 -29 12 -54.5 t-14.5 -45.5t-32 -35t-41.5 -24z" />
<glyph unicode="&#xe0;" d="M82 13q24 -20 56.5 -22.5t64 4.5t57.5 20.5t37 26.5l-1 -12v-23q0 -12 8 -18t17 -5.5t16.5 6.5t6.5 18q-3 50 2.5 97t15.5 88q8 41 20 75l20 58q4 11 -1.5 18.5t-14 10t-18 -1.5t-13.5 -15q-13 -33 -24 -74t-19 -78q-10 -36 -14 -61l-4 -25q-14 -16 -38.5 -30.5t-51 -23 t-52 -8.5t-41.5 15q-27 22 -36 50.5t-3 57.5t25.5 56t49.5 47.5t69 30.5t84 6q12 -1 18 6t6 16t-5.5 17t-17.5 9q-55 6 -103 -8.5t-85 -41.5t-60.5 -64t-29.5 -76t7.5 -77.5t51.5 -68.5zM230 406q7 -7 17 -7t17 7t7 17t-7 17l-75 75q-7 7 -17 7t-17 -7t-7 -17t7 -17z" />
<glyph unicode="&#xe1;" d="M82 13q24 -20 56.5 -22.5t64 4.5t57.5 20.5t37 26.5l-1 -12v-23q0 -12 8 -18t17 -5.5t16.5 6.5t6.5 18q-3 50 2.5 97t15.5 88q8 41 20 75l20 58q4 11 -1.5 18.5t-14 10t-18 -1.5t-13.5 -15q-13 -33 -24 -74t-19 -78q-10 -36 -14 -61l-4 -25q-14 -16 -38.5 -30.5t-51 -23 t-52 -8.5t-41.5 15q-27 22 -36 50.5t-3 57.5t25.5 56t49.5 47.5t69 30.5t84 6q12 -1 18 6t6 16t-5.5 17t-17.5 9q-55 6 -103 -8.5t-85 -41.5t-60.5 -64t-29.5 -76t7.5 -77.5t51.5 -68.5zM238 406q7 -7 17 -7t17 7l75 75q7 7 7 17t-7 17t-17 7t-17 -7l-75 -75q-7 -7 -7 -17 t7 -17z" />
<glyph unicode="&#xe2;" d="M82 13q24 -20 56.5 -22.5t64 4.5t57.5 20.5t37 26.5l-1 -12v-23q0 -12 8 -18t17 -5.5t16.5 6.5t6.5 18q-3 50 2.5 97t15.5 88q8 41 20 75l20 58q4 11 -1.5 18.5t-14 10t-18 -1.5t-13.5 -15q-13 -33 -24 -74t-19 -78q-10 -36 -14 -61l-4 -25q-14 -16 -38.5 -30.5t-51 -23 t-52 -8.5t-41.5 15q-27 22 -36 50.5t-3 57.5t25.5 56t49.5 47.5t69 30.5t84 6q12 -1 18 6t6 16t-5.5 17t-17.5 9q-55 6 -103 -8.5t-85 -41.5t-60.5 -64t-29.5 -76t7.5 -77.5t51.5 -68.5zM144 436q-6 -6 -6 -15t6 -15t15 -6t15 6l75 75l75 -75q7 -7 15.5 -6.5t14.5 6.5t6 15 t-6 15l-105 105z" />
<glyph unicode="&#xe3;" d="M82 13q24 -20 56.5 -22.5t64 4.5t57.5 20.5t37 26.5l-1 -12v-23q0 -12 8 -18t17 -5.5t16.5 6.5t6.5 18q-3 50 2.5 97t15.5 88q8 41 20 75l20 58q4 11 -1.5 18.5t-14 10t-18 -1.5t-13.5 -15q-13 -33 -24 -74t-19 -78q-10 -36 -14 -61l-4 -25q-14 -16 -38.5 -30.5t-51 -23 t-52 -8.5t-41.5 15q-27 22 -36 50.5t-3 57.5t25.5 56t49.5 47.5t69 30.5t84 6q12 -1 18 6t6 16t-5.5 17t-17.5 9q-55 6 -103 -8.5t-85 -41.5t-60.5 -64t-29.5 -76t7.5 -77.5t51.5 -68.5zM115 435q-6 -8 -4.5 -16t7 -13.5t13 -6.5t14.5 6q12 12 22 24t27 12q10 -1 20 -7 l22 -14q12 -8 25.5 -14t29.5 -6t28 5t22 13t17 16l12 14q6 7 4 15.5t-7 14t-13 6.5t-14 -6q-3 -3 -8 -9t-12 -12t-14.5 -10.5t-14.5 -4.5q-11 0 -21 6l-22 14q-12 8 -25 14.5t-29 6.5t-29 -6t-23.5 -14t-17 -16t-9.5 -12z" />
<glyph unicode="&#xe4;" d="M82 13q24 -20 56.5 -22.5t64 4.5t57.5 20.5t37 26.5l-1 -12v-23q0 -12 8 -18t17 -5.5t16.5 6.5t6.5 18q-3 50 2.5 97t15.5 88q8 41 20 75l20 58q4 11 -1.5 18.5t-14 10t-18 -1.5t-13.5 -15q-13 -33 -24 -74t-19 -78q-10 -36 -14 -61l-4 -25q-14 -16 -38.5 -30.5t-51 -23 t-52 -8.5t-41.5 15q-27 22 -36 50.5t-3 57.5t25.5 56t49.5 47.5t69 30.5t84 6q12 -1 18 6t6 16t-5.5 17t-17.5 9q-55 6 -103 -8.5t-85 -41.5t-60.5 -64t-29.5 -76t7.5 -77.5t51.5 -68.5zM234 430q0 15 -9.5 23t-21.5 8t-21.5 -8t-9.5 -23t9.5 -23t21.5 -8t21.5 8t9.5 23z M360 430q0 15 -9.5 23t-21.5 8t-21.5 -8t-9.5 -23t9.5 -23t21.5 -8t21.5 8t9.5 23z" />
<glyph unicode="&#xe5;" d="M82 13q24 -20 56.5 -22.5t64 4.5t57.5 20.5t37 26.5l-1 -12v-23q0 -12 8 -18t17 -5.5t16.5 6.5t6.5 18q-3 50 2.5 97t15.5 88q8 41 20 75l20 58q4 11 -1.5 18.5t-14 10t-18 -1.5t-13.5 -15q-13 -33 -24 -74t-19 -78q-10 -36 -14 -61l-4 -25q-14 -16 -38.5 -30.5t-51 -23 t-52 -8.5t-41.5 15q-27 22 -36 50.5t-3 57.5t25.5 56t49.5 47.5t69 30.5t84 6q12 -1 18 6t6 16t-5.5 17t-17.5 9q-55 6 -103 -8.5t-85 -41.5t-60.5 -64t-29.5 -76t7.5 -77.5t51.5 -68.5zM351 476q0 38 -24 57t-53 19q-28 0 -52 -19t-24 -57t24 -57.5t52 -19.5q29 0 53 19.5 t24 57.5zM228 476q0 23 14.5 34.5t31.5 11.5q18 0 32.5 -11.5t14.5 -34.5t-14.5 -35t-32.5 -12q-17 0 -31.5 12t-14.5 35z" />
<glyph unicode="&#xe6;" horiz-adv-x="700" d="M605 339q-45 18 -80.5 19.5t-62.5 -5.5t-46 -19.5l-32 -21.5l2 5q2 5 3 9q4 12 -1 19.5t-13.5 9.5t-18.5 -2t-14 -15q-13 -33 -24 -74t-19.5 -77.5t-12.5 -61.5l-5 -25q-14 -16 -38.5 -30.5t-51 -23t-52 -8.5t-41.5 15q-27 22 -36 50.5t-3 57.5t25.5 56t49.5 47.5 t69 30.5t84 6q12 -1 18 6t6 16t-5.5 17t-17.5 9q-55 6 -103 -8.5t-85 -41.5t-60.5 -64t-29.5 -76t8 -77.5t51 -68.5q24 -20 56.5 -22.5t64 4.5t57.5 20.5t37 26.5v-12q0 -12 -1 -23q0 -11 5.5 -16.5t12.5 -7t14.5 1t11.5 7.5q3 4 4 12l1 8q30 -24 71.5 -25.5t84.5 10 t81.5 31t63.5 36.5q10 7 11 16.5t-4 17t-13.5 10.5t-18.5 -3q-36 -23 -74 -42t-72.5 -28t-63 -5t-44.5 25q-14 18 -15.5 49.5t8 66t30.5 67t52.5 53t72 24.5t90.5 -19q22 -10 15.5 -26.5t-35 -36.5t-75 -42t-104.5 -43q-11 -4 -15 -12t-1.5 -15t10 -11t18.5 -1q34 9 62 22 t53 27q26 14 48 30l45 32q6 4 18.5 18t18.5 32t-2 36.5t-43 32.5z" />
<glyph unicode="&#xe7;" horiz-adv-x="417" d="M54 35q16 -21 38.5 -31.5t37 -13t16.5 -2.5q0 -12 3 -22.5t7 -19.5t6.5 -17t2.5 -14q0 -11 -6.5 -17.5t-27.5 -17.5q-7 -3 -9 -9.5t0 -12t7.5 -8.5t13.5 0q21 9 37.5 24.5t16.5 40.5q0 10 -3 18.5t-6.5 16t-6.5 16.5t-3 21l16 1q16 1 40 6t53.5 17t57.5 35q11 9 12 19 t-4.5 17t-15 8.5t-18.5 -5.5q-26 -22 -59.5 -36.5t-67 -18.5t-62.5 5.5t-45 34.5q-14 22 -14.5 52.5t11.5 62.5t36.5 61t60 47t81.5 22.5t102 -13.5q11 -3 20 1.5t13.5 12t2 15.5t-13.5 12q-66 23 -122.5 18t-101 -29t-75.5 -61.5t-46 -79.5t-12 -83.5t27 -72.5z" />
<glyph unicode="&#xe8;" horiz-adv-x="452" d="M68 13q31 -25 73 -26.5t85 10t82 31t64 36.5q10 7 11 15.5t-3 15.5t-12.5 9.5t-18.5 -3.5q-36 -23 -74.5 -41t-73.5 -26.5t-63.5 -4t-44.5 25.5q-14 18 -15.5 49.5t8 66t30.5 67t52.5 53t72 24.5t90.5 -19q22 -10 15.5 -26.5t-35 -36.5t-75 -42t-104.5 -43 q-11 -4 -15 -11t-2.5 -13t9 -9.5t18.5 -0.5q68 19 117 45.5t95 58.5q6 4 18.5 18.5t18 32.5t-3 37t-43.5 33q-64 25 -117 18t-93 -36.5t-65.5 -72.5t-35 -87.5t-1 -84.5t35.5 -63zM190 406q7 -7 17 -7t17 7t7 17t-7 17l-75 75q-7 7 -17 7t-17 -7t-7 -17t7 -17z" />
<glyph unicode="&#xe9;" horiz-adv-x="452" d="M68 13q31 -25 73 -26.5t85 10t82 31t64 36.5q10 7 11 15.5t-3 15.5t-12.5 9.5t-18.5 -3.5q-36 -23 -74.5 -41t-73.5 -26.5t-63.5 -4t-44.5 25.5q-14 18 -15.5 49.5t8 66t30.5 67t52.5 53t72 24.5t90.5 -19q22 -10 15.5 -26.5t-35 -36.5t-75 -42t-104.5 -43 q-11 -4 -15 -11t-2.5 -13t9 -9.5t18.5 -0.5q68 19 117 45.5t95 58.5q6 4 18.5 18.5t18 32.5t-3 37t-43.5 33q-64 25 -117 18t-93 -36.5t-65.5 -72.5t-35 -87.5t-1 -84.5t35.5 -63zM200 406q7 -7 17 -7t17 7l75 75q7 7 7 17t-7 17t-17 7t-17 -7l-75 -75q-7 -7 -7 -17t7 -17z " />
<glyph unicode="&#xea;" horiz-adv-x="452" d="M68 13q31 -25 73 -26.5t85 10t82 31t64 36.5q10 7 11 15.5t-3 15.5t-12.5 9.5t-18.5 -3.5q-36 -23 -74.5 -41t-73.5 -26.5t-63.5 -4t-44.5 25.5q-14 18 -15.5 49.5t8 66t30.5 67t52.5 53t72 24.5t90.5 -19q22 -10 15.5 -26.5t-35 -36.5t-75 -42t-104.5 -43 q-11 -4 -15 -11t-2.5 -13t9 -9.5t18.5 -0.5q68 19 117 45.5t95 58.5q6 4 18.5 18.5t18 32.5t-3 37t-43.5 33q-64 25 -117 18t-93 -36.5t-65.5 -72.5t-35 -87.5t-1 -84.5t35.5 -63zM122 436q-6 -6 -6 -15t6 -15t15 -6t15 6l75 75l75 -75q7 -7 15.5 -6.5t14.5 6.5t6 15t-6 15 l-105 105z" />
<glyph unicode="&#xeb;" horiz-adv-x="452" d="M68 13q31 -25 73 -26.5t85 10t82 31t64 36.5q10 7 11 15.5t-3 15.5t-12.5 9.5t-18.5 -3.5q-36 -23 -74.5 -41t-73.5 -26.5t-63.5 -4t-44.5 25.5q-14 18 -15.5 49.5t8 66t30.5 67t52.5 53t72 24.5t90.5 -19q22 -10 15.5 -26.5t-35 -36.5t-75 -42t-104.5 -43 q-11 -4 -15 -11t-2.5 -13t9 -9.5t18.5 -0.5q68 19 117 45.5t95 58.5q6 4 18.5 18.5t18 32.5t-3 37t-43.5 33q-64 25 -117 18t-93 -36.5t-65.5 -72.5t-35 -87.5t-1 -84.5t35.5 -63zM202 430q0 15 -9.5 23t-21.5 8t-21.5 -8t-9.5 -23t9.5 -23t21.5 -8t21.5 8t9.5 23zM328 430 q0 15 -9.5 23t-21.5 8t-21.5 -8t-9.5 -23t9.5 -23t21.5 -8t21.5 8t9.5 23z" />
<glyph unicode="&#xec;" horiz-adv-x="230" d="M102 7l55 330q2 11 -4.5 18.5t-14.5 9.5t-17.5 -3t-11.5 -16l-55 -330q-2 -11 4.5 -18.5t14.5 -9.5t17.5 3t11.5 16zM110 406q7 -7 17 -7t17 7t7 17t-7 17l-75 75q-7 7 -17 7t-17 -7t-7 -17t7 -17z" />
<glyph unicode="&#xed;" horiz-adv-x="230" d="M102 7l55 330q2 11 -4.5 18.5t-14.5 9.5t-17.5 -3t-11.5 -16l-55 -330q-2 -11 4.5 -18.5t14.5 -9.5t17.5 3t11.5 16zM126 406q7 -7 17 -7t17 7l75 75q7 7 7 17t-7 17t-17 7t-17 -7l-75 -75q-7 -7 -7 -17t7 -17z" />
<glyph unicode="&#xee;" horiz-adv-x="230" d="M102 7l55 330q2 11 -4.5 18.5t-14.5 9.5t-17.5 -3t-11.5 -16l-55 -330q-2 -11 4.5 -18.5t14.5 -9.5t17.5 3t11.5 16zM16 436q-6 -6 -6 -15t6 -15t15 -6t15 6l75 75l75 -75q7 -7 15.5 -6.5t14.5 6.5t6 15t-6 15l-105 105z" />
<glyph unicode="&#xef;" horiz-adv-x="230" d="M102 7l55 330q2 11 -4.5 18.5t-14.5 9.5t-17.5 -3t-11.5 -16l-55 -330q-2 -11 4.5 -18.5t14.5 -9.5t17.5 3t11.5 16zM92 430q0 15 -9.5 23t-21.5 8t-21.5 -8t-9.5 -23t9.5 -23t21.5 -8t21.5 8t9.5 23zM218 430q0 15 -9.5 23t-21.5 8t-21.5 -8t-9.5 -23t9.5 -23t21.5 -8 t21.5 8t9.5 23z" />
<glyph unicode="&#xf0;" horiz-adv-x="442" d="M188 38q-46 0 -73.5 20.5t-37.5 50.5t-4 66t27 66t55.5 50.5t80.5 20.5t73.5 -20.5t37.5 -50.5t4 -66t-27 -66t-55.5 -50.5t-80.5 -20.5zM223 502q25 -27 47 -59t39 -70q4 -7 7 -15l6 -15q-32 17 -77 17q-68 0 -115 -27.5t-73.5 -68.5t-32 -89t10 -89t51.5 -68.5 t93 -27.5q56 0 98 18.5t69.5 49t41 69t13.5 77.5q0 44 -15.5 96.5t-35.5 95.5q-14 30 -30 56.5t-34 49.5h38q9 0 16.5 8t7.5 16t-7.5 16t-16.5 8h-79q-24 25 -47.5 45t-43 34t-34 23t-21.5 13q-12 7 -22 4t-14 -11t-1.5 -18.5t14.5 -17.5l34 -22q28 -18 65 -50h-35 q-9 0 -16.5 -8t-7.5 -16t7 -16t17 -8h83z" />
<glyph unicode="&#xf1;" d="M20 14q-3 -23 18 -28q11 -2 19.5 2t10.5 17l31 186q1 1 18 15l45 34q28 21 58 39.5t56.5 30t39.5 6.5q17 -7 22 -40.5t1 -79t-15 -95t-26 -87.5q-4 -11 1 -18.5t14 -9.5t18.5 1.5t13.5 14.5q17 46 29 100.5t14 105.5t-6.5 92t-32.5 59q-18 14 -48 8t-62 -22t-62 -35 t-47.5 -32.5t-18.5 -14.5l13 78q2 11 -4 19.5t-15 10.5t-18 -4t-11 -17zM83 435q-6 -8 -4.5 -16t7 -13.5t13 -6.5t14.5 6q12 12 22 24t27 12q10 -1 20 -7l22 -14q12 -8 25.5 -14t29.5 -6t28 5t22 13t17 16l12 14q6 7 4 15.5t-7 14t-13 6.5t-14 -6q-3 -3 -8 -9t-12 -12 t-14.5 -10.5t-14.5 -4.5q-11 0 -21 6l-22 14q-12 8 -25 14.5t-29 6.5t-29 -6t-23.5 -14t-17 -16t-9.5 -12z" />
<glyph unicode="&#xf2;" horiz-adv-x="442" d="M245 360q-68 0 -115 -27.5t-73.5 -68.5t-32 -89t10 -89t51.5 -68.5t93 -27.5q67 0 114.5 27.5t74 68.5t32 89t-9.5 89t-51.5 68.5t-93.5 27.5zM188 38q-46 0 -73.5 20.5t-37.5 50.5t-4 66t27 66t55.5 50.5t80.5 20.5t73.5 -20.5t37.5 -50.5t4 -66t-27 -66t-55.5 -50.5 t-80.5 -20.5zM232 406q7 -7 17 -7t17 7t7 17t-7 17l-75 75q-7 7 -17 7t-17 -7t-7 -17t7 -17z" />
<glyph unicode="&#xf3;" horiz-adv-x="442" d="M245 360q-68 0 -115 -27.5t-73.5 -68.5t-32 -89t10 -89t51.5 -68.5t93 -27.5q67 0 114.5 27.5t74 68.5t32 89t-9.5 89t-51.5 68.5t-93.5 27.5zM188 38q-46 0 -73.5 20.5t-37.5 50.5t-4 66t27 66t55.5 50.5t80.5 20.5t73.5 -20.5t37.5 -50.5t4 -66t-27 -66t-55.5 -50.5 t-80.5 -20.5zM210 406q7 -7 17 -7t17 7l75 75q7 7 7 17t-7 17t-17 7t-17 -7l-75 -75q-7 -7 -7 -17t7 -17z" />
<glyph unicode="&#xf4;" horiz-adv-x="442" d="M245 360q-68 0 -115 -27.5t-73.5 -68.5t-32 -89t10 -89t51.5 -68.5t93 -27.5q67 0 114.5 27.5t74 68.5t32 89t-9.5 89t-51.5 68.5t-93.5 27.5zM188 38q-46 0 -73.5 20.5t-37.5 50.5t-4 66t27 66t55.5 50.5t80.5 20.5t73.5 -20.5t37.5 -50.5t4 -66t-27 -66t-55.5 -50.5 t-80.5 -20.5zM124 436q-6 -6 -6 -15t6 -15t15 -6t15 6l75 75l75 -75q7 -7 15.5 -6.5t14.5 6.5t6 15t-6 15l-105 105z" />
<glyph unicode="&#xf5;" horiz-adv-x="442" d="M245 360q-68 0 -115 -27.5t-73.5 -68.5t-32 -89t10 -89t51.5 -68.5t93 -27.5q67 0 114.5 27.5t74 68.5t32 89t-9.5 89t-51.5 68.5t-93.5 27.5zM188 38q-46 0 -73.5 20.5t-37.5 50.5t-4 66t27 66t55.5 50.5t80.5 20.5t73.5 -20.5t37.5 -50.5t4 -66t-27 -66t-55.5 -50.5 t-80.5 -20.5zM77 435q-6 -8 -4.5 -16t7 -13.5t13 -6.5t14.5 6q12 12 22 24t27 12q10 -1 20 -7l22 -14q12 -8 25.5 -14t29.5 -6t28 5t22 13t17 16l12 14q6 7 4 15.5t-7 14t-13 6.5t-14 -6q-3 -3 -8 -9t-12 -12t-14.5 -10.5t-14.5 -4.5q-11 0 -21 6l-22 14q-12 8 -25 14.5 t-29 6.5t-29 -6t-23.5 -14t-17 -16t-9.5 -12z" />
<glyph unicode="&#xf6;" horiz-adv-x="442" d="M245 360q-68 0 -115 -27.5t-73.5 -68.5t-32 -89t10 -89t51.5 -68.5t93 -27.5q67 0 114.5 27.5t74 68.5t32 89t-9.5 89t-51.5 68.5t-93.5 27.5zM188 38q-46 0 -73.5 20.5t-37.5 50.5t-4 66t27 66t55.5 50.5t80.5 20.5t73.5 -20.5t37.5 -50.5t4 -66t-27 -66t-55.5 -50.5 t-80.5 -20.5zM202 430q0 15 -9.5 23t-21.5 8t-21.5 -8t-9.5 -23t9.5 -23t21.5 -8t21.5 8t9.5 23zM328 430q0 15 -9.5 23t-21.5 8t-21.5 -8t-9.5 -23t9.5 -23t21.5 -8t21.5 8t9.5 23z" />
<glyph unicode="&#xf7;" horiz-adv-x="264" d="M24 350q-9 0 -16.5 -8t-7.5 -16t7 -16t17 -8h184q9 0 16.5 8t7.5 16t-7.5 16t-16.5 8h-184zM74 465q0 -17 12.5 -29.5t29.5 -12.5t29.5 12.5t12.5 29.5t-12.5 29.5t-29.5 12.5t-29.5 -12.5t-12.5 -29.5zM74 193q0 -17 12.5 -29.5t29.5 -12.5t29.5 12.5t12.5 29.5 t-12.5 29.5t-29.5 12.5t-29.5 -12.5t-12.5 -29.5z" />
<glyph unicode="&#xf8;" horiz-adv-x="442" d="M79 22l-11 -17q-5 -8 -2 -18.5t11 -14.5t19 0t16 12l11 16l25 -6q26 -6 63 -2.5t79 23.5t76 71q28 42 34 80t-1.5 67.5t-21 51.5t-23.5 33l-12 12l10 15q7 11 3.5 21.5t-11.5 14.5t-18 0t-18 -16l-9 -14l-23 5q-22 5 -55.5 3t-72 -16t-70.5 -53q-37 -44 -48 -85.5t-6 -74 t18.5 -57.5t24.5 -37.5t12 -13.5zM107 65l-12 13q-12 14 -19.5 39.5t-2.5 60.5t40 79q21 27 48.5 38.5t52 14t40.5 0.5l17 -2zM325 111q-24 -38 -54 -53t-57 -19q-26 -5 -44 -1l-19 4l163 246l12 -12q12 -12 20.5 -35t7 -55.5t-28.5 -74.5z" />
<glyph unicode="&#xf9;" horiz-adv-x="448" d="M76 22q27 -27 60.5 -30.5t66 6t60 26t42.5 30.5q0 -1 1 -10l2 -22q2 -14 3 -22q3 -12 11.5 -17t17 -3.5t15 8.5t3.5 19q-8 40 -5.5 81.5t10 83.5t18.5 82l22 80q3 11 -2.5 18t-14.5 9t-18 -2.5t-13 -15.5q-11 -34 -20.5 -74t-16.5 -75q-7 -34 -11 -58l-4 -24 q-11 -11 -35 -29t-52.5 -30.5t-57 -14.5t-48.5 18q-15 15 -21 36.5t-5 46t7 51.5t14 53.5t17.5 50.5t16.5 44q4 11 -1 18.5t-14 9.5t-18.5 -2t-13.5 -15q-12 -30 -27.5 -73t-23.5 -89t-2 -89.5t37 -75.5zM226 406q7 -7 17 -7t17 7t7 17t-7 17l-75 75q-7 7 -17 7t-17 -7 t-7 -17t7 -17z" />
<glyph unicode="&#xfa;" horiz-adv-x="448" d="M76 22q27 -27 60.5 -30.5t66 6t60 26t42.5 30.5q0 -1 1 -10l2 -22q2 -14 3 -22q3 -12 11.5 -17t17 -3.5t15 8.5t3.5 19q-8 40 -5.5 81.5t10 83.5t18.5 82l22 80q3 11 -2.5 18t-14.5 9t-18 -2.5t-13 -15.5q-11 -34 -20.5 -74t-16.5 -75q-7 -34 -11 -58l-4 -24 q-11 -11 -35 -29t-52.5 -30.5t-57 -14.5t-48.5 18q-15 15 -21 36.5t-5 46t7 51.5t14 53.5t17.5 50.5t16.5 44q4 11 -1 18.5t-14 9.5t-18.5 -2t-13.5 -15q-12 -30 -27.5 -73t-23.5 -89t-2 -89.5t37 -75.5zM210 406q7 -7 17 -7t17 7l75 75q7 7 7 17t-7 17t-17 7t-17 -7 l-75 -75q-7 -7 -7 -17t7 -17z" />
<glyph unicode="&#xfb;" horiz-adv-x="448" d="M76 22q27 -27 60.5 -30.5t66 6t60 26t42.5 30.5q0 -1 1 -10l2 -22q2 -14 3 -22q3 -12 11.5 -17t17 -3.5t15 8.5t3.5 19q-8 40 -5.5 81.5t10 83.5t18.5 82l22 80q3 11 -2.5 18t-14.5 9t-18 -2.5t-13 -15.5q-11 -34 -20.5 -74t-16.5 -75q-7 -34 -11 -58l-4 -24 q-11 -11 -35 -29t-52.5 -30.5t-57 -14.5t-48.5 18q-15 15 -21 36.5t-5 46t7 51.5t14 53.5t17.5 50.5t16.5 44q4 11 -1 18.5t-14 9.5t-18.5 -2t-13.5 -15q-12 -30 -27.5 -73t-23.5 -89t-2 -89.5t37 -75.5zM150 436q-6 -6 -6 -15t6 -15t15 -6t15 6l75 75l75 -75 q7 -7 15.5 -6.5t14.5 6.5t6 15t-6 15l-105 105z" />
<glyph unicode="&#xfc;" horiz-adv-x="448" d="M76 22q27 -27 60.5 -30.5t66 6t60 26t42.5 30.5q0 -1 1 -10l2 -22q2 -14 3 -22q3 -12 11.5 -17t17 -3.5t15 8.5t3.5 19q-8 40 -5.5 81.5t10 83.5t18.5 82l22 80q3 11 -2.5 18t-14.5 9t-18 -2.5t-13 -15.5q-11 -34 -20.5 -74t-16.5 -75q-7 -34 -11 -58l-4 -24 q-11 -11 -35 -29t-52.5 -30.5t-57 -14.5t-48.5 18q-15 15 -21 36.5t-5 46t7 51.5t14 53.5t17.5 50.5t16.5 44q4 11 -1 18.5t-14 9.5t-18.5 -2t-13.5 -15q-12 -30 -27.5 -73t-23.5 -89t-2 -89.5t37 -75.5zM218 430q0 15 -9.5 23t-21.5 8t-21.5 -8t-9.5 -23t9.5 -23t21.5 -8 t21.5 8t9.5 23zM344 430q0 15 -9.5 23t-21.5 8t-21.5 -8t-9.5 -23t9.5 -23t21.5 -8t21.5 8t9.5 23z" />
<glyph unicode="&#xfd;" horiz-adv-x="450" d="M101 -293q8 -4 19 -0.5t15 11.5l305 610q4 8 0 17.5t-11 12.5q-8 3 -18.5 0.5t-14.5 -10.5l-150 -300q-1 2 -8.5 21t-22.5 53t-35 72.5t-45.5 79.5t-53.5 73q-8 9 -16.5 8t-15 -7.5t-8 -16.5t6.5 -19q25 -28 49.5 -70t45.5 -84.5t38 -82t25.5 -62t9.5 -24.5l-125 -250 q-4 -8 -1 -18t11 -14zM218 406q7 -7 17 -7t17 7l75 75q7 7 7 17t-7 17t-17 7t-17 -7l-75 -75q-7 -7 -7 -17t7 -17z" />
<glyph unicode="&#xfe;" d="M80 49l33 200q1 4 17 15.5t41 22.5t54 20t55 9q29 0 49 -15t20 -38q0 -20 -11 -43.5t-30.5 -47t-45.5 -46t-56 -39.5t-62 -27.5t-64 -10.5zM72 0q60 0 118.5 25.5t104.5 64.5t74.5 85.5t28.5 88.5q0 19 -7.5 37t-22 32t-36 22.5t-49.5 8.5q-23 0 -45.5 -4.5t-43.5 -11.5 t-38.5 -15t-29.5 -15l51 308q1 8 -3 15.5t-18 9.5q-9 1 -17.5 -2.5t-10.5 -19.5l-150 -897q-3 -25 18 -28q10 -2 18.5 2t10.5 15z" />
<glyph unicode="&#xff;" horiz-adv-x="450" d="M101 -293q8 -4 19 -0.5t15 11.5l305 610q4 8 0 17.5t-11 12.5q-8 3 -18.5 0.5t-14.5 -10.5l-150 -300q-1 2 -8.5 21t-22.5 53t-35 72.5t-45.5 79.5t-53.5 73q-8 9 -16.5 8t-15 -7.5t-8 -16.5t6.5 -19q25 -28 49.5 -70t45.5 -84.5t38 -82t25.5 -62t9.5 -24.5l-125 -250 q-4 -8 -1 -18t11 -14zM232 430q0 15 -9.5 23t-21.5 8t-21.5 -8t-9.5 -23t9.5 -23t21.5 -8t21.5 8t9.5 23zM358 430q0 15 -9.5 23t-21.5 8t-21.5 -8t-9.5 -23t9.5 -23t21.5 -8t21.5 8t9.5 23z" />
<glyph unicode="&#x152;" horiz-adv-x="1033" d="M489 97q0 -2 -0.5 -13.5t1.5 -29.5t10 -29q16 -23 47.5 -32.5t73 -10.5t89 6t95 17t91.5 22l80 21q12 3 17 13t3 19.5t-10 15.5t-21 3l-130 -33q-66 -16 -122.5 -25t-98.5 -8t-58 17q-12 12 -14 44t3.5 70.5t13.5 76t13.5 60.5t6.5 25q38 1 70 4t60.5 6.5t55 8t54.5 10.5 q13 3 18 12.5t3.5 19t-9.5 16.5t-20 4l-22 -5q-22 -4 -54.5 -9t-70.5 -9.5t-71 -4.5l5 17q4 16 12.5 41.5t19.5 55.5t24 57q5 10 38.5 19t82.5 16t107.5 11.5t113.5 4.5q10 0 15 8t4.5 18t-6 18t-16.5 8q-63 -1 -127.5 -5.5t-118.5 -13t-91 -21t-44 -28.5l-18 -41l-14 -36 l-11 -28l-4 -10l-5 24q-6 24 -23.5 55t-49 62.5t-83.5 46.5q-61 18 -115.5 2.5t-99 -54t-77.5 -94t-51.5 -119t-20.5 -128.5t15.5 -121.5t57 -99.5t103.5 -62q51 -15 94.5 -7.5t76 26t56 41.5t34.5 38.5t12 16.5zM389 608q49 -15 79 -50.5t43.5 -83.5t11.5 -103.5 t-16.5 -109.5t-41 -102t-62 -81t-79.5 -46.5t-94 1.5q-51 15 -82 51t-44.5 84t-11.5 103.5t17.5 109t43 101.5t63.5 81t80 46.5t93 -1.5z" />
<glyph unicode="&#x153;" horiz-adv-x="740" d="M330 63l4 -15q4 -15 28 -35q31 -25 73 -26.5t85 10t82 31t64 36.5q10 7 11 16.5t-4 17t-13.5 10.5t-18.5 -3q-36 -23 -74 -42t-72.5 -28t-63 -5t-44.5 25q-14 18 -15.5 49.5t8 66t30.5 67t52.5 53t72 24.5t90.5 -19q22 -10 15.5 -26.5t-35 -36.5t-75 -42t-104.5 -43 q-11 -4 -15 -12t-1.5 -15t10 -11t18.5 -1q34 9 62 22t53 27t47 30l46 32q6 4 18.5 18t18.5 32t-2 36.5t-43 32.5q-52 21 -94.5 19t-74 -15.5t-54 -32.5t-32.5 -32.5t-11 -14.5l-6 15q-6 15 -22 33t-44 33.5t-73 15.5q-68 0 -115 -27t-73.5 -68t-32 -89t10 -89.5t51.5 -69 t93 -27.5q46 0 78 11.5t52 24.5q19 14 29 26zM170 38q-46 0 -73.5 20.5t-37.5 50.5t-4 66t27 66t55.5 50.5t80.5 20.5t73.5 -20.5t37.5 -50.5t4 -66t-27 -66t-55.5 -50.5t-80.5 -20.5z" />
<glyph unicode="&#x178;" horiz-adv-x="642" d="M308 -2q15 66 25 121t16 94t8 61l2 21q27 30 62 64l73 73q38 38 75.5 82t69.5 94q7 11 3 21t-13 15t-19.5 3.5t-16.5 -13.5q-12 -25 -42.5 -61.5t-65.5 -74.5l-69 -72l-56 -55l-22 -22q-32 28 -67.5 63t-69 73t-62 77t-47.5 76q-6 12 -15.5 13t-17.5 -5.5t-11 -17.5 t3 -23q42 -78 110.5 -153t145.5 -147l-2 -22q-2 -22 -8 -61t-15.5 -93.5t-24.5 -119.5q-3 -14 3.5 -22t16 -10t19 3t12.5 18zM324 682q0 15 -9.5 23t-21.5 8t-21.5 -8t-9.5 -23t9.5 -23t21.5 -8t21.5 8t9.5 23zM450 682q0 15 -9.5 23t-21.5 8t-21.5 -8t-9.5 -23t9.5 -23 t21.5 -8t21.5 8t9.5 23z" />
<glyph unicode="&#x2c6;" horiz-adv-x="283" d="M42 436q-6 -6 -6 -15t6 -15t15 -6t15 6l75 75l75 -75q7 -7 15.5 -6.5t14.5 6.5t6 15t-6 15l-105 105z" />
<glyph unicode="&#x2dc;" horiz-adv-x="323" d="M47 435q-6 -8 -4.5 -16t7 -13.5t13 -6.5t14.5 6q12 12 22 24t27 12q10 -1 20 -7l22 -14q12 -8 25.5 -14t29.5 -6t28 5t22 13t17 16l12 14q6 7 4 15.5t-7 14t-13 6.5t-14 -6q-3 -3 -8 -9t-12 -12t-14.5 -10.5t-14.5 -4.5q-11 0 -21 6l-22 14q-12 8 -25 14.5t-29 6.5 t-29 -6t-23.5 -14t-17 -16t-9.5 -12z" />
<glyph unicode="&#x2000;" horiz-adv-x="417" />
<glyph unicode="&#x2001;" horiz-adv-x="834" />
<glyph unicode="&#x2002;" horiz-adv-x="417" />
<glyph unicode="&#x2003;" horiz-adv-x="834" />
<glyph unicode="&#x2004;" horiz-adv-x="278" />
<glyph unicode="&#x2005;" horiz-adv-x="208" />
<glyph unicode="&#x2006;" horiz-adv-x="139" />
<glyph unicode="&#x2007;" horiz-adv-x="139" />
<glyph unicode="&#x2008;" horiz-adv-x="104" />
<glyph unicode="&#x2009;" horiz-adv-x="166" />
<glyph unicode="&#x200a;" horiz-adv-x="46" />
<glyph unicode="&#x2010;" horiz-adv-x="264" d="M24 218q-9 0 -16.5 -8t-7.5 -16t7 -16t17 -8h184q9 0 16.5 8t7.5 16t-7.5 16t-16.5 8h-184z" />
<glyph unicode="&#x2011;" horiz-adv-x="264" d="M24 218q-9 0 -16.5 -8t-7.5 -16t7 -16t17 -8h184q9 0 16.5 8t7.5 16t-7.5 16t-16.5 8h-184z" />
<glyph unicode="&#x2013;" horiz-adv-x="390" d="M66 214q-8 0 -13.5 -6.5t-7.5 -13.5q-2 -8 -2.5 -17.5t7.5 -9.5h241q6 0 11 6t8 14l2 7q2 4 2 9t-1.5 8t-5.5 3h-241z" />
<glyph unicode="&#x2014;" horiz-adv-x="544" d="M69 214q-8 0 -13.5 -6.5t-7.5 -13.5q-2 -8 -2.5 -17.5t7.5 -9.5h397q6 0 11 6t8 14l3 7q2 4 1 9q0 5 -1.5 8t-5.5 3h-397z" />
<glyph unicode="&#x2018;" horiz-adv-x="126" d="M32 540q4 -11 11.5 -13t14.5 0t11.5 8.5t1.5 17.5l-26 81q-3 11 -11.5 13t-14.5 0q-7 -2 -12.5 -8t-1.5 -18z" />
<glyph unicode="&#x2019;" horiz-adv-x="152" d="M83 527q7 -2 14.5 0t11.5 13l27 81q4 12 -1.5 18t-12.5 8q-6 2 -14.5 0t-11.5 -13l-26 -81q-3 -11 1.5 -17.5t11.5 -8.5z" />
<glyph unicode="&#x201a;" horiz-adv-x="129" d="M32 -14q13 0 27.5 18t24.5 40t11.5 40t-11.5 18t-28 -18t-24.5 -40t-11 -40t11.5 -18z" />
<glyph unicode="&#x201c;" horiz-adv-x="192" d="M134 540q4 -11 11.5 -13t14.5 0t11.5 8.5t1.5 17.5l-26 81q-3 11 -11.5 13t-14.5 0q-7 -2 -12.5 -8t-1.5 -18zM32 540q4 -11 11.5 -13t14.5 0t11.5 8.5t1.5 17.5l-26 81q-3 11 -11.5 13t-14.5 0q-7 -2 -12.5 -8t-1.5 -18z" />
<glyph unicode="&#x201d;" horiz-adv-x="217" d="M47 527q7 -2 14.5 0t11.5 13l27 81q4 12 -1.5 18t-12.5 8q-6 2 -14.5 0t-11.5 -13l-26 -81q-3 -11 1.5 -17.5t11.5 -8.5zM149 527q7 -2 14.5 0t11.5 13l27 81q4 12 -1.5 18t-12.5 8q-6 2 -14.5 0t-11.5 -13l-26 -81q-3 -11 1.5 -17.5t11.5 -8.5z" />
<glyph unicode="&#x201e;" horiz-adv-x="192" d="M131 -17q13 0 27.5 18t24.5 40t11.5 40t-11.5 18t-28 -18t-24.5 -40t-11 -40t11.5 -18zM29 -17q13 0 27.5 18t24.5 40t11.5 40t-11.5 18t-28 -18t-24.5 -40t-11 -40t11.5 -18z" />
<glyph unicode="&#x2022;" horiz-adv-x="510" d="M450 270q0 75 -33.5 125t-83.5 75t-108 25t-108 -25t-83.5 -75t-33.5 -125t33.5 -125t83.5 -75t108 -25t108 25t83.5 75t33.5 125z" />
<glyph unicode="&#x2026;" horiz-adv-x="480" d="M72 29q0 15 -9.5 23t-21.5 8t-21.5 -8t-9.5 -23t9.5 -23t21.5 -8t21.5 8t9.5 23zM232 29q0 15 -9.5 23t-21.5 8t-21.5 -8t-9.5 -23t9.5 -23t21.5 -8t21.5 8t9.5 23zM392 29q0 15 -9.5 23t-21.5 8t-21.5 -8t-9.5 -23t9.5 -23t21.5 -8t21.5 8t9.5 23z" />
<glyph unicode="&#x202f;" horiz-adv-x="166" />
<glyph unicode="&#x2039;" horiz-adv-x="295" d="M262 317q10 5 11.5 14.5t-2 17.5t-11.5 12.5t-18 -0.5q-46 -23 -88 -49.5t-74 -50.5t-51 -44.5t-19 -31.5t18.5 -33.5t50 -50t73 -56t87.5 -51.5q10 -5 18 -0.5t11.5 12.5t2 17.5t-11.5 14.5q-100 56 -146.5 98t-46.5 49q0 8 48 42t148 90z" />
<glyph unicode="&#x203a;" horiz-adv-x="295" d="M58 361q-10 5 -18 0.5t-11.5 -12.5t-2 -17.5t11.5 -14.5q100 -56 148 -90t48 -42q0 -7 -46.5 -49t-146.5 -98q-10 -5 -11.5 -14.5t2 -17.5t11.5 -12.5t18 0.5q46 23 87.5 51.5t73 56t50 50t18.5 33.5t-19 31.5t-51 44.5t-74 50.5t-88 49.5z" />
<glyph unicode="&#x205f;" horiz-adv-x="208" />
<glyph unicode="&#x2122;" horiz-adv-x="395" d="M82 599l-1 -13q-1 -13 -4 -36.5t-8.5 -55t-14.5 -67.5q-2 -8 5.5 -9t9.5 7q9 36 14.5 68t8.5 55.5t4 37.5l1 14l69 5q5 0 6.5 3.5t1.5 5.5q0 1 -2 4t-7 3l-146 -11q-5 -1 -6.5 -4t-1.5 -4q0 -2 1.5 -5t6.5 -3zM114 430q-2 -8 5.5 -9.5t9.5 6.5q7 34 19.5 64t25.5 53 t23 36.5t12 13.5t3.5 -17.5t6.5 -36.5q2 -7 5 -16t6.5 -17t7 -14t5.5 -6q3 0 8 7.5t11 18l12 21.5l8 17l18 27q10 14 16 19q2 1 2 -20q0 -20 4 -50q1 -9 3.5 -22.5t6.5 -28.5l8 -30q4 -15 8 -26q3 -8 10.5 -5.5t4.5 10.5q-16 46 -22 83t-7.5 63t-1.5 39t-7 11 q-14 -5 -28.5 -23t-25.5 -36.5t-18.5 -33t-8.5 -12.5q-8 18 -11.5 36t-6 32.5t-5 23.5t-7.5 9q-6 0 -20 -16t-29.5 -42.5t-29.5 -60t-21 -68.5z" />
</font>
</defs>
</svg>
